<?xml version="1.0" encoding="UTF-8" standalone="no"?><svg xmlns="http://www.w3.org/2000/svg" xmlns:xlink="http://www.w3.org/1999/xlink" contentScriptType="application/ecmascript" contentStyleType="text/css" height="431px" preserveAspectRatio="none" style="width:1143px;height:431px;background:#FFFFFF;" version="1.1" viewBox="0 0 1143 431" width="1143px" zoomAndPan="magnify"><defs><filter height="300%" id="f1e87pbjzwglv0" width="300%" x="-1" y="-1"><feGaussianBlur result="blurOut" stdDeviation="2.0"/><feColorMatrix in="blurOut" result="blurOut2" type="matrix" values="0 0 0 0 0 0 0 0 0 0 0 0 0 0 0 0 0 0 .4 0"/><feOffset dx="4.0" dy="4.0" in="blurOut2" result="blurOut3"/><feBlend in="SourceGraphic" in2="blurOut3" mode="normal"/></filter></defs><g><text fill="#000000" font-family="sans-serif" font-size="18" lengthAdjust="spacing" textLength="418" x="355" y="16.708">Bluetooth association models &amp; security history</text><ellipse cx="659.8093" cy="387.215" fill="#FEFECE" filter="url(#f1e87pbjzwglv0)" rx="96.8093" ry="21.7619" style="stroke:#A80036;stroke-width:1.5;"/><text fill="#000000" font-family="sans-serif" font-size="14" lengthAdjust="spacing" textLength="157" x="581.3093" y="390.0617">BR/EDR Legacy Pairing</text><path d="M792,351.9531 L792,383.4531 L757.24,387.4531 L792,391.4531 L792,422.4844 A0,0 0 0 0 792,422.4844 L1112,422.4844 A0,0 0 0 0 1112,422.4844 L1112,361.9531 L1102,351.9531 L792,351.9531 A0,0 0 0 0 792,351.9531 " fill="#FBFB77" filter="url(#f1e87pbjzwglv0)" style="stroke:#A80036;stroke-width:1.0;"/><path d="M1102,351.9531 L1102,361.9531 L1112,361.9531 L1102,351.9531 " fill="#FBFB77" style="stroke:#A80036;stroke-width:1.0;"/><text fill="#000000" font-family="sans-serif" font-size="13" lengthAdjust="spacing" textLength="126" x="798" y="369.02">Since the beginning</text><text fill="#000000" font-family="sans-serif" font-size="13" lengthAdjust="spacing" textLength="0" x="802" y="384.1528"/><text fill="#000000" font-family="sans-serif" font-size="13" lengthAdjust="spacing" textLength="299" x="798" y="399.2856">Lowest security (based on SAFER+ algorithms)</text><text fill="#000000" font-family="sans-serif" font-size="13" lengthAdjust="spacing" textLength="80" x="798" y="414.4185">There is only</text><text fill="#000000" font-family="sans-serif" font-size="13" font-weight="bold" lengthAdjust="spacing" textLength="156" x="882" y="414.4185">one pairing workflow</text><text fill="#000000" font-family="sans-serif" font-size="13" lengthAdjust="spacing" textLength="4" x="1038" y="414.4185">.</text><ellipse cx="660.2229" cy="240.4977" fill="#FEFECE" filter="url(#f1e87pbjzwglv0)" rx="93.2229" ry="21.0446" style="stroke:#A80036;stroke-width:1.5;"/><text fill="#000000" font-family="sans-serif" font-size="14" lengthAdjust="spacing" textLength="149" x="585.7229" y="243.3444">Secure Simple Pairing</text><path d="M788,189.9531 L788,236.4531 L753.18,240.4531 L788,244.4531 L788,290.75 A0,0 0 0 0 788,290.75 L1134,290.75 A0,0 0 0 0 1134,290.75 L1134,199.9531 L1124,189.9531 L788,189.9531 A0,0 0 0 0 788,189.9531 " fill="#FBFB77" filter="url(#f1e87pbjzwglv0)" style="stroke:#A80036;stroke-width:1.0;"/><path d="M1124,189.9531 L1124,199.9531 L1134,199.9531 L1124,189.9531 " fill="#FBFB77" style="stroke:#A80036;stroke-width:1.0;"/><text fill="#000000" font-family="sans-serif" font-size="13" lengthAdjust="spacing" textLength="104" x="794" y="207.02">Since 2.1 + EDR</text><text fill="#000000" font-family="sans-serif" font-size="13" lengthAdjust="spacing" textLength="0" x="798" y="222.1528"/><text fill="#000000" font-family="sans-serif" font-size="13" lengthAdjust="spacing" textLength="320" x="794" y="237.2856">Enhances security with stronger (FIPS) algorithms,</text><text fill="#000000" font-family="sans-serif" font-size="13" lengthAdjust="spacing" textLength="277" x="794" y="252.4185">passive eavesdropping &amp; MITM protections,</text><text fill="#000000" font-family="sans-serif" font-size="13" lengthAdjust="spacing" textLength="24" x="794" y="267.5513">and</text><text fill="#000000" font-family="sans-serif" font-size="13" font-weight="bold" lengthAdjust="spacing" textLength="213" x="822" y="267.5513">4 possible pairing workflows</text><text fill="#000000" font-family="sans-serif" font-size="13" lengthAdjust="spacing" textLength="4" x="1035" y="267.5513">.</text><text fill="#000000" font-family="sans-serif" font-size="13" lengthAdjust="spacing" textLength="222" x="794" y="282.6841">Some security is still at the level of</text><text fill="#000000" font-family="sans-serif" font-size="13" font-style="italic" lengthAdjust="spacing" textLength="95" x="1020" y="282.6841">BR/EDR legacy</text><text fill="#000000" font-family="sans-serif" font-size="13" lengthAdjust="spacing" textLength="4" x="1115" y="282.6841">.</text><ellipse cx="660.0602" cy="62.6652" fill="#FEFECE" filter="url(#f1e87pbjzwglv0)" rx="116.5602" ry="25.712" style="stroke:#A80036;stroke-width:1.5;"/><text fill="#000000" font-family="sans-serif" font-size="14" lengthAdjust="spacing" textLength="200" x="560.0602" y="65.5119">BR/EDR Secure Connections</text><path d="M812,34.9531 L812,58.4531 L776.55,62.4531 L812,66.4531 L812,90.3516 A0,0 0 0 0 812,90.3516 L1042,90.3516 A0,0 0 0 0 1042,90.3516 L1042,44.9531 L1032,34.9531 L812,34.9531 A0,0 0 0 0 812,34.9531 " fill="#FBFB77" filter="url(#f1e87pbjzwglv0)" style="stroke:#A80036;stroke-width:1.0;"/><path d="M1032,34.9531 L1032,44.9531 L1042,44.9531 L1032,34.9531 " fill="#FBFB77" style="stroke:#A80036;stroke-width:1.0;"/><text fill="#000000" font-family="sans-serif" font-size="13" lengthAdjust="spacing" textLength="59" x="818" y="52.02">Since 4.1</text><text fill="#000000" font-family="sans-serif" font-size="13" lengthAdjust="spacing" textLength="0" x="822" y="67.1528"/><text fill="#000000" font-family="sans-serif" font-size="13" lengthAdjust="spacing" textLength="209" x="818" y="82.2856">Fills the remaining security gaps.</text><ellipse cx="409.7839" cy="240.3099" fill="#FEFECE" filter="url(#f1e87pbjzwglv0)" rx="79.7839" ry="18.3568" style="stroke:#A80036;stroke-width:1.5;"/><text fill="#000000" font-family="sans-serif" font-size="14" lengthAdjust="spacing" textLength="118" x="349.0356" y="243.7144">LE Legacy Pairing</text><path d="M9.5,189.9531 L9.5,290.75 A0,0 0 0 0 9.5,290.75 L294.5,290.75 A0,0 0 0 0 294.5,290.75 L294.5,244.4531 L329.76,240.4531 L294.5,236.4531 L294.5,199.9531 L284.5,189.9531 L9.5,189.9531 A0,0 0 0 0 9.5,189.9531 " fill="#FBFB77" filter="url(#f1e87pbjzwglv0)" style="stroke:#A80036;stroke-width:1.0;"/><path d="M284.5,189.9531 L284.5,199.9531 L294.5,199.9531 L284.5,189.9531 " fill="#FBFB77" style="stroke:#A80036;stroke-width:1.0;"/><text fill="#000000" font-family="sans-serif" font-size="13" lengthAdjust="spacing" textLength="59" x="15.5" y="207.02">Since 4.0</text><text fill="#000000" font-family="sans-serif" font-size="13" lengthAdjust="spacing" textLength="0" x="19.5" y="222.1528"/><text fill="#000000" font-family="sans-serif" font-size="13" lengthAdjust="spacing" textLength="122" x="15.5" y="237.2856">Similar to BR/EDR's</text><text fill="#000000" font-family="sans-serif" font-size="13" font-style="italic" lengthAdjust="spacing" textLength="138" x="141.5" y="237.2856">Secure Simple Pairing</text><text fill="#000000" font-family="sans-serif" font-size="13" lengthAdjust="spacing" textLength="80" x="15.5" y="252.4185">but with only</text><text fill="#000000" font-family="sans-serif" font-size="13" font-weight="bold" lengthAdjust="spacing" textLength="146" x="99.5" y="252.4185">3 pairing workflows</text><text fill="#000000" font-family="sans-serif" font-size="13" lengthAdjust="spacing" textLength="50" x="15.5" y="267.5513">(misses</text><text fill="#000000" font-family="sans-serif" font-size="13" font-style="italic" lengthAdjust="spacing" textLength="135" x="69.5" y="267.5513">Numeric Comparison</text><text fill="#000000" font-family="sans-serif" font-size="13" lengthAdjust="spacing" textLength="5" x="204.5" y="267.5513">)</text><text fill="#000000" font-family="sans-serif" font-size="13" lengthAdjust="spacing" textLength="244" x="15.5" y="282.6841">and trades some security for usability.</text><ellipse cx="410.1147" cy="62.5761" fill="#FEFECE" filter="url(#f1e87pbjzwglv0)" rx="98.6147" ry="22.1229" style="stroke:#A80036;stroke-width:1.5;"/><text fill="#000000" font-family="sans-serif" font-size="14" lengthAdjust="spacing" textLength="161" x="329.6147" y="65.4227">LE Secure Connections</text><path d="M6,26.9531 L6,97.4844 A0,0 0 0 0 6,97.4844 L276,97.4844 A0,0 0 0 0 276,97.4844 L276,66.4531 L311.35,62.4531 L276,58.4531 L276,36.9531 L266,26.9531 L6,26.9531 A0,0 0 0 0 6,26.9531 " fill="#FBFB77" filter="url(#f1e87pbjzwglv0)" style="stroke:#A80036;stroke-width:1.0;"/><path d="M266,26.9531 L266,36.9531 L276,36.9531 L266,26.9531 " fill="#FBFB77" style="stroke:#A80036;stroke-width:1.0;"/><text fill="#000000" font-family="sans-serif" font-size="13" lengthAdjust="spacing" textLength="59" x="12" y="44.02">Since 4.2</text><text fill="#000000" font-family="sans-serif" font-size="13" lengthAdjust="spacing" textLength="0" x="16" y="59.1528"/><text fill="#000000" font-family="sans-serif" font-size="13" lengthAdjust="spacing" textLength="61" x="12" y="74.2856">Similar to</text><text fill="#000000" font-family="sans-serif" font-size="13" font-style="italic" lengthAdjust="spacing" textLength="180" x="77" y="74.2856">BR/EDR Secure Connections</text><text fill="#000000" font-family="sans-serif" font-size="13" lengthAdjust="spacing" textLength="4" x="257" y="74.2856">,</text><text fill="#000000" font-family="sans-serif" font-size="13" lengthAdjust="spacing" textLength="90" x="12" y="89.4185">with the same</text><text fill="#000000" font-family="sans-serif" font-size="13" font-weight="bold" lengthAdjust="spacing" textLength="146" x="106" y="89.4185">4 pairing workflows</text><text fill="#000000" font-family="sans-serif" font-size="13" lengthAdjust="spacing" textLength="4" x="252" y="89.4185">.</text><!--MD5=[2165f44cde3fa2ff1bfcf4b41e1f3b68]
reverse link secure_simple_pairing to bredr_legacy_pairing--><path d="M660,266.9631 C660,294.8131 660,338.9331 660,365.0531 " fill="none" id="secure_simple_pairing-backto-bredr_legacy_pairing" style="stroke:#A80036;stroke-width:1.0;"/><polygon fill="#A80036" points="660,261.6131,656,270.6131,660,266.6131,664,270.6131,660,261.6131" style="stroke:#A80036;stroke-width:1.0;"/><!--MD5=[2fedb89cd8872dcfaabbf0d935df68de]
reverse link bredr_legacy_secure_connections to secure_simple_pairing--><path d="M660,93.4231 C660,129.3431 660,188.5431 660,219.3731 " fill="none" id="bredr_legacy_secure_connections-backto-secure_simple_pairing" style="stroke:#A80036;stroke-width:1.0;"/><polygon fill="#A80036" points="660,88.2931,656,97.2931,660,93.2931,664,97.2931,660,88.2931" style="stroke:#A80036;stroke-width:1.0;"/><text fill="#000000" font-family="sans-serif" font-size="13" lengthAdjust="spacing" textLength="163" x="661" y="141.02">Security upgrade through</text><text fill="#000000" font-family="sans-serif" font-size="13" font-style="italic" lengthAdjust="spacing" textLength="127" x="679" y="156.1528">Secure Connections</text><!--MD5=[cd7876923adef9c81699ce2ad3335492]
reverse link le_secure_connections to le_legacy_pairing--><path d="M410,89.8431 C410,126.2231 410,190.8231 410,221.8531 " fill="none" id="le_secure_connections-backto-le_legacy_pairing" style="stroke:#A80036;stroke-width:1.0;"/><polygon fill="#A80036" points="410,84.6831,406,93.6831,410,89.6831,414,93.6831,410,84.6831" style="stroke:#A80036;stroke-width:1.0;"/><text fill="#000000" font-family="sans-serif" font-size="13" lengthAdjust="spacing" textLength="163" x="411" y="141.02">Security upgrade through</text><text fill="#000000" font-family="sans-serif" font-size="13" font-style="italic" lengthAdjust="spacing" textLength="127" x="429" y="156.1528">Secure Connections</text><!--MD5=[6cb2eacf2cb1b3eb2b235ffa0b193583]
@startuml

title
    Bluetooth association models & security history
end title

(BR/EDR Legacy Pairing) as bredr_legacy_pairing
    note right of bredr_legacy_pairing
        Since the beginning

        Lowest security (based on SAFER+ algorithms)
        There is only **one pairing workflow**.
    end note
(Secure Simple Pairing) as secure_simple_pairing
    note right of secure_simple_pairing
        Since 2.1 + EDR

        Enhances security with stronger (FIPS) algorithms,
        passive eavesdropping & MITM protections,
        and **4 possible pairing workflows**.
        Some security is still at the level of <i>BR/EDR legacy</i>.
    end note
(BR/EDR Secure Connections) as bredr_legacy_secure_connections
    note right of bredr_legacy_secure_connections
        Since 4.1

        Fills the remaining security gaps.
    end note
(LE Legacy Pairing) as le_legacy_pairing
    note left of le_legacy_pairing
        Since 4.0

        Similar to BR/EDR's <i>Secure Simple Pairing</i>
        but with only **3 pairing workflows**
        (misses <i>Numeric Comparison</i>)
        and trades some security for usability.
    end note
(LE Secure Connections) as le_secure_connections
    note left of le_secure_connections
        Since 4.2

        Similar to <i>BR/EDR Secure Connections</i>,
        with the same **4 pairing workflows**.
    end note

bredr_legacy_pairing -up-> secure_simple_pairing
secure_simple_pairing -up-> bredr_legacy_secure_connections : Security upgrade through\n<i>Secure Connections</i>
le_legacy_pairing -up-> le_secure_connections : Security upgrade through\n<i>Secure Connections</i>

@enduml

PlantUML version 1.2021.9(Sun Jul 25 12:13:56 CEST 2021)
(GPL source distribution)
Java Runtime: OpenJDK Runtime Environment
JVM: OpenJDK 64-Bit Server VM
Default Encoding: UTF-8
Language: fr
Country: FR
--></g></svg>