<?xml version="1.0" encoding="UTF-8" standalone="no"?><svg xmlns="http://www.w3.org/2000/svg" xmlns:xlink="http://www.w3.org/1999/xlink" contentScriptType="application/ecmascript" contentStyleType="text/css" height="475px" preserveAspectRatio="none" style="width:1095px;height:475px;background:#FFFFFF;" version="1.1" viewBox="0 0 1095 475" width="1095px" zoomAndPan="magnify"><defs><filter height="300%" id="f1e87pbjzwglv0" width="300%" x="-1" y="-1"><feGaussianBlur result="blurOut" stdDeviation="2.0"/><feColorMatrix in="blurOut" result="blurOut2" type="matrix" values="0 0 0 0 0 0 0 0 0 0 0 0 0 0 0 0 0 0 .4 0"/><feOffset dx="4.0" dy="4.0" in="blurOut2" result="blurOut3"/><feBlend in="SourceGraphic" in2="blurOut3" mode="normal"/></filter></defs><g><text fill="#000000" font-family="sans-serif" font-size="18" lengthAdjust="spacing" textLength="409" x="335.5" y="19.2419">Bluetooth association models &amp; security history</text><ellipse cx="633.7909" cy="426.174" fill="#FEFECE" filter="url(#f1e87pbjzwglv0)" rx="98.7909" ry="22.1582" style="stroke:#A80036;stroke-width:1.5;"/><text fill="#000000" font-family="sans-serif" font-size="14" lengthAdjust="spacing" textLength="152" x="554.7909" y="430.907">BR/EDR Legacy Pairing</text><path d="M768.5,385.5158 L768.5,422.0158 L733.14,426.0158 L768.5,430.0158 L768.5,466.3399 A0,0 0 0 0 768.5,466.3399 L1063.5,466.3399 A0,0 0 0 0 1063.5,466.3399 L1063.5,395.5158 L1053.5,385.5158 L768.5,385.5158 A0,0 0 0 0 768.5,385.5158 " fill="#FBFB77" filter="url(#f1e87pbjzwglv0)" style="stroke:#A80036;stroke-width:1.0;"/><path d="M1053.5,385.5158 L1053.5,395.5158 L1063.5,395.5158 L1053.5,385.5158 " fill="#FBFB77" style="stroke:#A80036;stroke-width:1.0;"/><text fill="#000000" font-family="sans-serif" font-size="13" lengthAdjust="spacing" textLength="118" x="774.5" y="404.4129">Since the beginning</text><text fill="#000000" font-family="sans-serif" font-size="13" lengthAdjust="spacing" textLength="0" x="777.5" y="422.1189"/><text fill="#000000" font-family="sans-serif" font-size="13" lengthAdjust="spacing" textLength="274" x="774.5" y="439.8249">Lowest security (based on SAFER+ algorithms)</text><text fill="#000000" font-family="sans-serif" font-size="13" lengthAdjust="spacing" textLength="75" x="774.5" y="457.5309">There is only</text><text fill="#000000" font-family="sans-serif" font-size="13" font-weight="bold" lengthAdjust="spacing" textLength="139" x="852.5" y="457.5309">one pairing workflow</text><text fill="#000000" font-family="sans-serif" font-size="13" lengthAdjust="spacing" textLength="3" x="991.5" y="457.5309">.</text><ellipse cx="634.1483" cy="266.3455" fill="#FEFECE" filter="url(#f1e87pbjzwglv0)" rx="97.1483" ry="21.8297" style="stroke:#A80036;stroke-width:1.5;"/><text fill="#000000" font-family="sans-serif" font-size="14" lengthAdjust="spacing" textLength="148" x="557.1483" y="271.0785">Secure Simple Pairing</text><path d="M766,208.5158 L766,262.5158 L731.24,266.5158 L766,270.5158 L766,324.7519 A0,0 0 0 0 766,324.7519 L1086,324.7519 A0,0 0 0 0 1086,324.7519 L1086,218.5158 L1076,208.5158 L766,208.5158 A0,0 0 0 0 766,208.5158 " fill="#FBFB77" filter="url(#f1e87pbjzwglv0)" style="stroke:#A80036;stroke-width:1.0;"/><path d="M1076,208.5158 L1076,218.5158 L1086,218.5158 L1076,208.5158 " fill="#FBFB77" style="stroke:#A80036;stroke-width:1.0;"/><text fill="#000000" font-family="sans-serif" font-size="13" lengthAdjust="spacing" textLength="88" x="772" y="227.4129">Since 2.1 + EDR</text><text fill="#000000" font-family="sans-serif" font-size="13" lengthAdjust="spacing" textLength="0" x="775" y="245.1189"/><text fill="#000000" font-family="sans-serif" font-size="13" lengthAdjust="spacing" textLength="299" x="772" y="262.8249">Enhances security with stronger (FIPS) algorithms,</text><text fill="#000000" font-family="sans-serif" font-size="13" lengthAdjust="spacing" textLength="263" x="772" y="280.5309">passive eavesdropping &amp; MITM protections,</text><text fill="#000000" font-family="sans-serif" font-size="13" lengthAdjust="spacing" textLength="23" x="772" y="298.2369">and</text><text fill="#000000" font-family="sans-serif" font-size="13" font-weight="bold" lengthAdjust="spacing" textLength="182" x="798" y="298.2369">4 possible pairing workflows</text><text fill="#000000" font-family="sans-serif" font-size="13" lengthAdjust="spacing" textLength="3" x="980" y="298.2369">.</text><text fill="#000000" font-family="sans-serif" font-size="13" lengthAdjust="spacing" textLength="202" x="772" y="315.9429">Some security is still at the level of</text><text fill="#000000" font-family="sans-serif" font-size="13" font-style="italic" lengthAdjust="spacing" textLength="82" x="977" y="315.9429">BR/EDR legacy</text><text fill="#000000" font-family="sans-serif" font-size="13" lengthAdjust="spacing" textLength="3" x="1059" y="315.9429">.</text><ellipse cx="634.1669" cy="71.1492" fill="#FEFECE" filter="url(#f1e87pbjzwglv0)" rx="113.6669" ry="25.1334" style="stroke:#A80036;stroke-width:1.5;"/><text fill="#000000" font-family="sans-serif" font-size="14" lengthAdjust="spacing" textLength="187" x="537.6669" y="75.8822">BR/EDR Secure Connections</text><path d="M782.5,39.5158 L782.5,67.0158 L747.5,71.0158 L782.5,75.0158 L782.5,102.6339 A0,0 0 0 0 782.5,102.6339 L997.5,102.6339 A0,0 0 0 0 997.5,102.6339 L997.5,49.5158 L987.5,39.5158 L782.5,39.5158 A0,0 0 0 0 782.5,39.5158 " fill="#FBFB77" filter="url(#f1e87pbjzwglv0)" style="stroke:#A80036;stroke-width:1.0;"/><path d="M987.5,39.5158 L987.5,49.5158 L997.5,49.5158 L987.5,39.5158 " fill="#FBFB77" style="stroke:#A80036;stroke-width:1.0;"/><text fill="#000000" font-family="sans-serif" font-size="13" lengthAdjust="spacing" textLength="51" x="788.5" y="58.4129">Since 4.1</text><text fill="#000000" font-family="sans-serif" font-size="13" lengthAdjust="spacing" textLength="0" x="791.5" y="76.1189"/><text fill="#000000" font-family="sans-serif" font-size="13" lengthAdjust="spacing" textLength="194" x="788.5" y="93.8249">Fills the remaining security gaps.</text><ellipse cx="385.9582" cy="266.4075" fill="#FEFECE" filter="url(#f1e87pbjzwglv0)" rx="84.9582" ry="19.3916" style="stroke:#A80036;stroke-width:1.5;"/><text fill="#000000" font-family="sans-serif" font-size="14" lengthAdjust="spacing" textLength="117" x="324.4582" y="271.1405">LE Legacy Pairing</text><path d="M6,208.5158 L6,324.7519 A0,0 0 0 0 6,324.7519 L266,324.7519 A0,0 0 0 0 266,324.7519 L266,270.5158 L300.95,266.5158 L266,262.5158 L266,218.5158 L256,208.5158 L6,208.5158 A0,0 0 0 0 6,208.5158 " fill="#FBFB77" filter="url(#f1e87pbjzwglv0)" style="stroke:#A80036;stroke-width:1.0;"/><path d="M256,208.5158 L256,218.5158 L266,218.5158 L256,208.5158 " fill="#FBFB77" style="stroke:#A80036;stroke-width:1.0;"/><text fill="#000000" font-family="sans-serif" font-size="13" lengthAdjust="spacing" textLength="51" x="12" y="227.4129">Since 4.0</text><text fill="#000000" font-family="sans-serif" font-size="13" lengthAdjust="spacing" textLength="0" x="15" y="245.1189"/><text fill="#000000" font-family="sans-serif" font-size="13" lengthAdjust="spacing" textLength="113" x="12" y="262.8249">Similar to BR/EDR's</text><text fill="#000000" font-family="sans-serif" font-size="13" font-style="italic" lengthAdjust="spacing" textLength="123" x="128" y="262.8249">Secure Simple Pairing</text><text fill="#000000" font-family="sans-serif" font-size="13" lengthAdjust="spacing" textLength="79" x="12" y="280.5309">but with only</text><text fill="#000000" font-family="sans-serif" font-size="13" font-weight="bold" lengthAdjust="spacing" textLength="127" x="94" y="280.5309">3 pairing workflows</text><text fill="#000000" font-family="sans-serif" font-size="13" lengthAdjust="spacing" textLength="44" x="12" y="298.2369">(misses</text><text fill="#000000" font-family="sans-serif" font-size="13" font-style="italic" lengthAdjust="spacing" textLength="121" x="59" y="298.2369">Numeric Comparison</text><text fill="#000000" font-family="sans-serif" font-size="13" lengthAdjust="spacing" textLength="4" x="180" y="298.2369">)</text><text fill="#000000" font-family="sans-serif" font-size="13" lengthAdjust="spacing" textLength="226" x="12" y="315.9429">and trades some security for usability.</text><ellipse cx="385.7909" cy="71.174" fill="#FEFECE" filter="url(#f1e87pbjzwglv0)" rx="98.7909" ry="22.1582" style="stroke:#A80036;stroke-width:1.5;"/><text fill="#000000" font-family="sans-serif" font-size="14" lengthAdjust="spacing" textLength="152" x="306.7909" y="75.907">LE Secure Connections</text><path d="M10.5,30.5158 L10.5,111.3399 A0,0 0 0 0 10.5,111.3399 L251.5,111.3399 A0,0 0 0 0 251.5,111.3399 L251.5,75.0158 L286.98,71.0158 L251.5,67.0158 L251.5,40.5158 L241.5,30.5158 L10.5,30.5158 A0,0 0 0 0 10.5,30.5158 " fill="#FBFB77" filter="url(#f1e87pbjzwglv0)" style="stroke:#A80036;stroke-width:1.0;"/><path d="M241.5,30.5158 L241.5,40.5158 L251.5,40.5158 L241.5,30.5158 " fill="#FBFB77" style="stroke:#A80036;stroke-width:1.0;"/><text fill="#000000" font-family="sans-serif" font-size="13" lengthAdjust="spacing" textLength="51" x="16.5" y="49.4129">Since 4.2</text><text fill="#000000" font-family="sans-serif" font-size="13" lengthAdjust="spacing" textLength="0" x="19.5" y="67.1189"/><text fill="#000000" font-family="sans-serif" font-size="13" lengthAdjust="spacing" textLength="56" x="16.5" y="84.8249">Similar to</text><text fill="#000000" font-family="sans-serif" font-size="13" font-style="italic" lengthAdjust="spacing" textLength="158" x="75.5" y="84.8249">BR/EDR Secure Connections</text><text fill="#000000" font-family="sans-serif" font-size="13" lengthAdjust="spacing" textLength="3" x="233.5" y="84.8249">,</text><text fill="#000000" font-family="sans-serif" font-size="13" lengthAdjust="spacing" textLength="84" x="16.5" y="102.5309">with the same</text><text fill="#000000" font-family="sans-serif" font-size="13" font-weight="bold" lengthAdjust="spacing" textLength="127" x="103.5" y="102.5309">4 pairing workflows</text><text fill="#000000" font-family="sans-serif" font-size="13" lengthAdjust="spacing" textLength="3" x="230.5" y="102.5309">.</text><!--MD5=[2165f44cde3fa2ff1bfcf4b41e1f3b68]
reverse link secure_simple_pairing to bredr_legacy_pairing--><path d="M634,293.9158 C634,324.8258 634,375.4058 634,403.8558 " fill="none" id="secure_simple_pairing-backto-bredr_legacy_pairing" style="stroke:#A80036;stroke-width:1.0;"/><polygon fill="#A80036" points="634,288.7558,630,297.7558,634,293.7558,638,297.7558,634,288.7558" style="stroke:#A80036;stroke-width:1.0;"/><!--MD5=[2fedb89cd8872dcfaabbf0d935df68de]
reverse link bredr_legacy_secure_connections to secure_simple_pairing--><path d="M634,101.2458 C634,140.5958 634,209.6658 634,244.3658 " fill="none" id="bredr_legacy_secure_connections-backto-secure_simple_pairing" style="stroke:#A80036;stroke-width:1.0;"/><polygon fill="#A80036" points="634,96.1358,630,105.1358,634,101.1358,638,105.1358,634,96.1358" style="stroke:#A80036;stroke-width:1.0;"/><text fill="#000000" font-family="sans-serif" font-size="13" lengthAdjust="spacing" textLength="155" x="635" y="156.4129">Security upgrade through</text><text fill="#000000" font-family="sans-serif" font-size="13" font-style="italic" lengthAdjust="spacing" textLength="112" x="656.5" y="174.1189">Secure Connections</text><!--MD5=[cd7876923adef9c81699ce2ad3335492]
reverse link le_secure_connections to le_legacy_pairing--><path d="M386,98.2158 C386,137.8458 386,212.0758 386,246.7658 " fill="none" id="le_secure_connections-backto-le_legacy_pairing" style="stroke:#A80036;stroke-width:1.0;"/><polygon fill="#A80036" points="386,93.0958,382,102.0958,386,98.0958,390,102.0958,386,93.0958" style="stroke:#A80036;stroke-width:1.0;"/><text fill="#000000" font-family="sans-serif" font-size="13" lengthAdjust="spacing" textLength="155" x="387" y="156.4129">Security upgrade through</text><text fill="#000000" font-family="sans-serif" font-size="13" font-style="italic" lengthAdjust="spacing" textLength="112" x="408.5" y="174.1189">Secure Connections</text><!--MD5=[3b61b4fe9a2dbf67944b26d245a0d30e]
@startuml

title
    Bluetooth association models & security history
end title

(BR/EDR Legacy Pairing) as bredr_legacy_pairing
    note right of bredr_legacy_pairing
        Since the beginning

        Lowest security (based on SAFER+ algorithms)
        There is only **one pairing workflow**.
    end note
(Secure Simple Pairing) as secure_simple_pairing
    note right of secure_simple_pairing
        Since 2.1 + EDR

        Enhances security with stronger (FIPS) algorithms,
        passive eavesdropping & MITM protections,
        and **4 possible pairing workflows**.
        Some security is still at the level of <i>BR/EDR legacy</i>.
    end note
(BR/EDR Secure Connections) as bredr_legacy_secure_connections
    note right of bredr_legacy_secure_connections
        Since 4.1

        Fills the remaining security gaps.
    end note
(LE Legacy Pairing) as le_legacy_pairing
    note left of le_legacy_pairing
        Since 4.0

        Similar to BR/EDR's <i>Secure Simple Pairing</i>
        but with only **3 pairing workflows**
        (misses <i>Numeric Comparison</i>)
        and trades some security for usability.
    end note
(LE Secure Connections) as le_secure_connections
    note left of le_secure_connections
        Since 4.2

        Similar to <i>BR/EDR Secure Connections</i>,
        with the same **4 pairing workflows**.
    end note

bredr_legacy_pairing -up-> secure_simple_pairing
secure_simple_pairing -up-> bredr_legacy_secure_connections : Security upgrade through\n<i>Secure Connections</i>
le_legacy_pairing -up-> le_secure_connections : Security upgrade through\n<i>Secure Connections</i>

@enduml

PlantUML version 1.2021.9(Sun Jul 25 12:13:56 CEST 2021)
(GPL source distribution)
Java Runtime: OpenJDK Runtime Environment
JVM: OpenJDK 64-Bit Server VM
Default Encoding: UTF-8
Language: en
Country: US
--></g></svg>