<?xml version="1.0" encoding="UTF-8" standalone="no"?><svg xmlns="http://www.w3.org/2000/svg" xmlns:xlink="http://www.w3.org/1999/xlink" contentScriptType="application/ecmascript" contentStyleType="text/css" height="436px" preserveAspectRatio="none" style="width:1124px;height:436px;" version="1.1" viewBox="0 0 1124 436" width="1124px" zoomAndPan="magnify"><defs><filter height="300%" id="f1e87pbjzwglv0" width="300%" x="-1" y="-1"><feGaussianBlur result="blurOut" stdDeviation="2.0"/><feColorMatrix in="blurOut" result="blurOut2" type="matrix" values="0 0 0 0 0 0 0 0 0 0 0 0 0 0 0 0 0 0 .4 0"/><feOffset dx="4.0" dy="4.0" in="blurOut2" result="blurOut3"/><feBlend in="SourceGraphic" in2="blurOut3" mode="normal"/></filter></defs><g><text fill="#000000" font-family="sans-serif" font-size="18" lengthAdjust="spacingAndGlyphs" textLength="418" x="356" y="16.708">Bluetooth association models &amp; security history</text><ellipse cx="642.9431" cy="389.6417" fill="#FEFECE" filter="url(#f1e87pbjzwglv0)" rx="91.4431" ry="20.6886" style="stroke: #A80036; stroke-width: 1.5;"/><text fill="#000000" font-family="sans-serif" font-size="14" lengthAdjust="spacingAndGlyphs" textLength="157" x="564.4431" y="394.2902">BR/EDR Legacy Pairing</text><path d="M770,353.9531 L770,385.4531 L734.65,389.4531 L770,393.4531 L770,424.4844 A0,0 0 0 0 770,424.4844 L1090,424.4844 A0,0 0 0 0 1090,424.4844 L1090,363.9531 L1080,353.9531 L770,353.9531 A0,0 0 0 0 770,353.9531 " fill="#FBFB77" filter="url(#f1e87pbjzwglv0)" style="stroke: #A80036; stroke-width: 1.0;"/><path d="M1080,353.9531 L1080,363.9531 L1090,363.9531 L1080,353.9531 " fill="#FBFB77" style="stroke: #A80036; stroke-width: 1.0;"/><text fill="#000000" font-family="sans-serif" font-size="13" lengthAdjust="spacingAndGlyphs" textLength="126" x="776" y="371.02">Since the beginning</text><text fill="#000000" font-family="sans-serif" font-size="13" lengthAdjust="spacingAndGlyphs" textLength="0" x="780" y="386.1528"/><text fill="#000000" font-family="sans-serif" font-size="13" lengthAdjust="spacingAndGlyphs" textLength="299" x="776" y="401.2856">Lowest security (based on SAFER+ algorithms)</text><text fill="#000000" font-family="sans-serif" font-size="13" lengthAdjust="spacingAndGlyphs" textLength="80" x="776" y="416.4185">There is only</text><text fill="#000000" font-family="sans-serif" font-size="13" font-weight="bold" lengthAdjust="spacingAndGlyphs" textLength="156" x="860" y="416.4185">one pairing workflow</text><text fill="#000000" font-family="sans-serif" font-size="13" lengthAdjust="spacingAndGlyphs" textLength="4" x="1016" y="416.4185">.</text><ellipse cx="642.9128" cy="242.4357" fill="#FEFECE" filter="url(#f1e87pbjzwglv0)" rx="87.9128" ry="19.9826" style="stroke: #A80036; stroke-width: 1.5;"/><text fill="#000000" font-family="sans-serif" font-size="14" lengthAdjust="spacingAndGlyphs" textLength="149" x="568.4128" y="247.0841">Secure Simple Pairing</text><path d="M766,191.9531 L766,238.4531 L731.16,242.4531 L766,246.4531 L766,292.75 A0,0 0 0 0 766,292.75 L1112,292.75 A0,0 0 0 0 1112,292.75 L1112,201.9531 L1102,191.9531 L766,191.9531 A0,0 0 0 0 766,191.9531 " fill="#FBFB77" filter="url(#f1e87pbjzwglv0)" style="stroke: #A80036; stroke-width: 1.0;"/><path d="M1102,191.9531 L1102,201.9531 L1112,201.9531 L1102,191.9531 " fill="#FBFB77" style="stroke: #A80036; stroke-width: 1.0;"/><text fill="#000000" font-family="sans-serif" font-size="13" lengthAdjust="spacingAndGlyphs" textLength="104" x="772" y="209.02">Since 2.1 + EDR</text><text fill="#000000" font-family="sans-serif" font-size="13" lengthAdjust="spacingAndGlyphs" textLength="0" x="776" y="224.1528"/><text fill="#000000" font-family="sans-serif" font-size="13" lengthAdjust="spacingAndGlyphs" textLength="320" x="772" y="239.2856">Enhances security with stronger (FIPS) algorithms,</text><text fill="#000000" font-family="sans-serif" font-size="13" lengthAdjust="spacingAndGlyphs" textLength="277" x="772" y="254.4185">passive eavesdropping &amp; MITM protections,</text><text fill="#000000" font-family="sans-serif" font-size="13" lengthAdjust="spacingAndGlyphs" textLength="24" x="772" y="269.5513">and</text><text fill="#000000" font-family="sans-serif" font-size="13" font-weight="bold" lengthAdjust="spacingAndGlyphs" textLength="213" x="800" y="269.5513">4 possible pairing workflows</text><text fill="#000000" font-family="sans-serif" font-size="13" lengthAdjust="spacingAndGlyphs" textLength="4" x="1013" y="269.5513">.</text><text fill="#000000" font-family="sans-serif" font-size="13" lengthAdjust="spacingAndGlyphs" textLength="222" x="772" y="284.6841">Some security is still at the level of</text><text fill="#000000" font-family="sans-serif" font-size="13" font-style="italic" lengthAdjust="spacingAndGlyphs" textLength="95" x="998" y="284.6841">BR/EDR legacy</text><text fill="#000000" font-family="sans-serif" font-size="13" lengthAdjust="spacingAndGlyphs" textLength="4" x="1093" y="284.6841">.</text><ellipse cx="642.9811" cy="64.5494" fill="#FEFECE" filter="url(#f1e87pbjzwglv0)" rx="110.9811" ry="24.5962" style="stroke: #A80036; stroke-width: 1.5;"/><text fill="#000000" font-family="sans-serif" font-size="14" lengthAdjust="spacingAndGlyphs" textLength="200" x="542.9811" y="69.1978">BR/EDR Secure Connections</text><path d="M789,36.9531 L789,60.4531 L754.13,64.4531 L789,68.4531 L789,92.3516 A0,0 0 0 0 789,92.3516 L1019,92.3516 A0,0 0 0 0 1019,92.3516 L1019,46.9531 L1009,36.9531 L789,36.9531 A0,0 0 0 0 789,36.9531 " fill="#FBFB77" filter="url(#f1e87pbjzwglv0)" style="stroke: #A80036; stroke-width: 1.0;"/><path d="M1009,36.9531 L1009,46.9531 L1019,46.9531 L1009,36.9531 " fill="#FBFB77" style="stroke: #A80036; stroke-width: 1.0;"/><text fill="#000000" font-family="sans-serif" font-size="13" lengthAdjust="spacingAndGlyphs" textLength="59" x="795" y="54.02">Since 4.1</text><text fill="#000000" font-family="sans-serif" font-size="13" lengthAdjust="spacingAndGlyphs" textLength="0" x="799" y="69.1528"/><text fill="#000000" font-family="sans-serif" font-size="13" lengthAdjust="spacingAndGlyphs" textLength="209" x="795" y="84.2856">Fills the remaining security gaps.</text><ellipse cx="404.2002" cy="242.2932" fill="#FEFECE" filter="url(#f1e87pbjzwglv0)" rx="74.7002" ry="17.34" style="stroke: #A80036; stroke-width: 1.5;"/><text fill="#000000" font-family="sans-serif" font-size="14" lengthAdjust="spacingAndGlyphs" textLength="118" x="345.2002" y="246.9416">LE Legacy Pairing</text><path d="M9.5,191.9531 L9.5,292.75 A0,0 0 0 0 9.5,292.75 L294.5,292.75 A0,0 0 0 0 294.5,292.75 L294.5,246.4531 L329.31,242.4531 L294.5,238.4531 L294.5,201.9531 L284.5,191.9531 L9.5,191.9531 A0,0 0 0 0 9.5,191.9531 " fill="#FBFB77" filter="url(#f1e87pbjzwglv0)" style="stroke: #A80036; stroke-width: 1.0;"/><path d="M284.5,191.9531 L284.5,201.9531 L294.5,201.9531 L284.5,191.9531 " fill="#FBFB77" style="stroke: #A80036; stroke-width: 1.0;"/><text fill="#000000" font-family="sans-serif" font-size="13" lengthAdjust="spacingAndGlyphs" textLength="59" x="15.5" y="209.02">Since 4.0</text><text fill="#000000" font-family="sans-serif" font-size="13" lengthAdjust="spacingAndGlyphs" textLength="0" x="19.5" y="224.1528"/><text fill="#000000" font-family="sans-serif" font-size="13" lengthAdjust="spacingAndGlyphs" textLength="122" x="15.5" y="239.2856">Similar to BR/EDR's</text><text fill="#000000" font-family="sans-serif" font-size="13" font-style="italic" lengthAdjust="spacingAndGlyphs" textLength="138" x="141.5" y="239.2856">Secure Simple Pairing</text><text fill="#000000" font-family="sans-serif" font-size="13" lengthAdjust="spacingAndGlyphs" textLength="80" x="15.5" y="254.4185">but with only</text><text fill="#000000" font-family="sans-serif" font-size="13" font-weight="bold" lengthAdjust="spacingAndGlyphs" textLength="146" x="99.5" y="254.4185">3 pairing workflows</text><text fill="#000000" font-family="sans-serif" font-size="13" lengthAdjust="spacingAndGlyphs" textLength="50" x="15.5" y="269.5513">(misses</text><text fill="#000000" font-family="sans-serif" font-size="13" font-style="italic" lengthAdjust="spacingAndGlyphs" textLength="135" x="69.5" y="269.5513">Numeric Comparison</text><text fill="#000000" font-family="sans-serif" font-size="13" lengthAdjust="spacingAndGlyphs" textLength="5" x="204.5" y="269.5513">)</text><text fill="#000000" font-family="sans-serif" font-size="13" lengthAdjust="spacingAndGlyphs" textLength="244" x="15.5" y="284.6841">and trades some security for usability.</text><ellipse cx="404.2229" cy="64.4977" fill="#FEFECE" filter="url(#f1e87pbjzwglv0)" rx="93.2229" ry="21.0446" style="stroke: #A80036; stroke-width: 1.5;"/><text fill="#000000" font-family="sans-serif" font-size="14" lengthAdjust="spacingAndGlyphs" textLength="161" x="323.7229" y="69.1461">LE Secure Connections</text><path d="M6,28.9531 L6,99.4844 A0,0 0 0 0 6,99.4844 L276,99.4844 A0,0 0 0 0 276,99.4844 L276,68.4531 L310.57,64.4531 L276,60.4531 L276,38.9531 L266,28.9531 L6,28.9531 A0,0 0 0 0 6,28.9531 " fill="#FBFB77" filter="url(#f1e87pbjzwglv0)" style="stroke: #A80036; stroke-width: 1.0;"/><path d="M266,28.9531 L266,38.9531 L276,38.9531 L266,28.9531 " fill="#FBFB77" style="stroke: #A80036; stroke-width: 1.0;"/><text fill="#000000" font-family="sans-serif" font-size="13" lengthAdjust="spacingAndGlyphs" textLength="59" x="12" y="46.02">Since 4.2</text><text fill="#000000" font-family="sans-serif" font-size="13" lengthAdjust="spacingAndGlyphs" textLength="0" x="16" y="61.1528"/><text fill="#000000" font-family="sans-serif" font-size="13" lengthAdjust="spacingAndGlyphs" textLength="61" x="12" y="76.2856">Similar to</text><text fill="#000000" font-family="sans-serif" font-size="13" font-style="italic" lengthAdjust="spacingAndGlyphs" textLength="180" x="77" y="76.2856">BR/EDR Secure Connections</text><text fill="#000000" font-family="sans-serif" font-size="13" lengthAdjust="spacingAndGlyphs" textLength="4" x="257" y="76.2856">,</text><text fill="#000000" font-family="sans-serif" font-size="13" lengthAdjust="spacingAndGlyphs" textLength="90" x="12" y="91.4185">with the same</text><text fill="#000000" font-family="sans-serif" font-size="13" font-weight="bold" lengthAdjust="spacingAndGlyphs" textLength="146" x="106" y="91.4185">4 pairing workflows</text><text fill="#000000" font-family="sans-serif" font-size="13" lengthAdjust="spacingAndGlyphs" textLength="4" x="252" y="91.4185">.</text><!--MD5=[2165f44cde3fa2ff1bfcf4b41e1f3b68]
reverse link secure_simple_pairing to bredr_legacy_pairing--><path d="M643,267.7831 C643,296.1231 643,342.4131 643,368.6531 " fill="none" id="secure_simple_pairing&lt;-bredr_legacy_pairing" style="stroke: #A80036; stroke-width: 1.0;"/><polygon fill="#A80036" points="643,262.7031,639,271.7031,643,267.7031,647,271.7031,643,262.7031" style="stroke: #A80036; stroke-width: 1.0;"/><!--MD5=[2fedb89cd8872dcfaabbf0d935df68de]
reverse link bredr_legacy_secure_connections to secure_simple_pairing--><path d="M643,94.3431 C643,130.5431 643,191.5631 643,222.4031 " fill="none" id="bredr_legacy_secure_connections&lt;-secure_simple_pairing" style="stroke: #A80036; stroke-width: 1.0;"/><polygon fill="#A80036" points="643,89.1931,639,98.1931,643,94.1931,647,98.1931,643,89.1931" style="stroke: #A80036; stroke-width: 1.0;"/><text fill="#000000" font-family="sans-serif" font-size="13" lengthAdjust="spacingAndGlyphs" textLength="163" x="644" y="143.02">Security upgrade through</text><text fill="#000000" font-family="sans-serif" font-size="13" font-style="italic" lengthAdjust="spacingAndGlyphs" textLength="127" x="662" y="158.1528">Secure Connections</text><!--MD5=[cd7876923adef9c81699ce2ad3335492]
reverse link le_secure_connections to le_legacy_pairing--><path d="M404,90.8131 C404,127.4031 404,193.9831 404,224.8831 " fill="none" id="le_secure_connections&lt;-le_legacy_pairing" style="stroke: #A80036; stroke-width: 1.0;"/><polygon fill="#A80036" points="404,85.6431,400,94.6431,404,90.6431,408,94.6431,404,85.6431" style="stroke: #A80036; stroke-width: 1.0;"/><text fill="#000000" font-family="sans-serif" font-size="13" lengthAdjust="spacingAndGlyphs" textLength="163" x="405" y="143.02">Security upgrade through</text><text fill="#000000" font-family="sans-serif" font-size="13" font-style="italic" lengthAdjust="spacingAndGlyphs" textLength="127" x="423" y="158.1528">Secure Connections</text><!--MD5=[79b613f770bf4e69c9b382d53e87fcaa]
@startuml

title
    Bluetooth association models & security history
end title

(BR/EDR Legacy Pairing) as bredr_legacy_pairing
    note right of bredr_legacy_pairing
        Since the beginning

        Lowest security (based on SAFER+ algorithms)
        There is only **one pairing workflow**.
    end note
(Secure Simple Pairing) as secure_simple_pairing
    note right of secure_simple_pairing
        Since 2.1 + EDR

        Enhances security with stronger (FIPS) algorithms,
        passive eavesdropping & MITM protections,
        and **4 possible pairing workflows**.
        Some security is still at the level of <i>BR/EDR legacy</i>.
    end note
(BR/EDR Secure Connections) as bredr_legacy_secure_connections
    note right of bredr_legacy_secure_connections
        Since 4.1

        Fills the remaining security gaps.
    end note
(LE Legacy Pairing) as le_legacy_pairing
    note left of le_legacy_pairing
        Since 4.0

        Similar to BR/EDR's <i>Secure Simple Pairing</i>
        but with only **3 pairing workflows**
        (misses <i>Numeric Comparison</i>)
        and trades some security for usability.
    end note
(LE Secure Connections) as le_secure_connections
    note left of le_secure_connections
        Since 4.2

        Similar to <i>BR/EDR Secure Connections</i>,
        with the same **4 pairing workflows**.
    end note

bredr_legacy_pairing -up-> secure_simple_pairing
secure_simple_pairing -up-> bredr_legacy_secure_connections : Security upgrade through\n<i>Secure Connections</i>
le_legacy_pairing -up-> le_secure_connections : Security upgrade through\n<i>Secure Connections</i>

@enduml

PlantUML version 1.2020.05(Thu Mar 19 22:17:32 CET 2020)
(GPL source distribution)
Java Runtime: OpenJDK Runtime Environment
JVM: OpenJDK 64-Bit Server VM
Java Version: 11.0.10+9-Ubuntu-0ubuntu1.20.04
Operating System: Linux
Default Encoding: UTF-8
Language: fr
Country: FR
--></g></svg>