<?xml version="1.0" encoding="UTF-8" standalone="no"?><svg xmlns="http://www.w3.org/2000/svg" xmlns:xlink="http://www.w3.org/1999/xlink" contentScriptType="application/ecmascript" contentStyleType="text/css" height="265px" preserveAspectRatio="none" style="width:498px;height:265px;background:#FFFFFF;" version="1.1" viewBox="0 0 498 265" width="498px" zoomAndPan="magnify"><defs><filter height="300%" id="fuu6c5yvmx8pv" width="300%" x="-1" y="-1"><feGaussianBlur result="blurOut" stdDeviation="2.0"/><feColorMatrix in="blurOut" result="blurOut2" type="matrix" values="0 0 0 0 0 0 0 0 0 0 0 0 0 0 0 0 0 0 .4 0"/><feOffset dx="4.0" dy="4.0" in="blurOut2" result="blurOut3"/><feBlend in="SourceGraphic" in2="blurOut3" mode="normal"/></filter></defs><g><!--MD5=[ab058941f67e1b06d1fe13cf6d01b60f]
cluster Intranet--><path d="M351.5232,23.2455 C355.5195,16.0077 360.0934,14.7207 365.735,21.5878 C368.6871,13.1313 375.7485,11.8758 381.75,18.3076 C383.5787,10.0645 390.472,9.8211 395.8286,14.4485 C400.8565,6.6402 406.2545,6.4919 411.6683,14.0507 C416.3451,6 422.9754,6.5179 427.0225,14.6482 C431.8732,10.3149 438.0807,12.2263 439.7535,18.4725 C444.6225,11.9292 451.553,13.1456 454.4026,20.5877 C464.8483,12.6109 471.6213,16.0871 475,27.9314 C476.8241,27.4085 477.8789,28.6453 477.455,30.3781 C485.5147,35.631 485.705,41.6628 477.1536,46.6073 C486.1724,50.4716 485.8919,56.4234 479.067,62.2284 C489.7367,66.6654 489.6339,75.4119 480.5435,81.3729 C488.9727,84.4655 489.128,91.6297 481.8505,96.1148 C490.9288,101.4848 491.726,108.6533 483.2929,115.3373 C490.8422,119.8615 490.8405,125.7485 483.9659,130.8966 C490.4441,136.7008 490.0762,142.3249 482.8651,147.205 C490.1758,152.06 489.5724,160.5106 481.5371,164.1639 C488.5032,171.2275 488.442,177.4151 479.1831,182.3824 C485.7621,187.103 485.9565,193.7945 478.9213,198.2912 C486.6819,203.9517 486.7914,209.8714 478.1437,214.757 C484.6978,226.0365 482.1698,235.7229 468,237.9314 C469.1884,237.2086 470.22,237.8015 470.4084,239.1145 C466.6044,248.0934 460.4983,248.105 453.7197,242.5241 C450.4644,249.5727 443.8265,250.2477 438.9377,244.3957 C437.1294,250.5818 432.3338,252.632 426.8932,248.7342 C423.3423,257.7726 415.232,258.5546 409.8273,250.5954 C405.0519,256.4998 400.6048,255.9191 397.3238,249.124 C390.4483,255.9844 385.8226,253.8796 382.4391,245.6739 C375.6365,253.4775 369.4507,250.5574 366.0335,242.2306 C353.4855,248.9151 346.4714,243.8964 344,230.9314 C345.0135,231.192 345.3208,231.9644 344.5499,232.7613 C334.9946,226.6978 336.2357,220.656 344.8695,214.9184 C336.9112,208.9529 338.2301,204.3139 345.9014,199.3869 C337.5659,193.6419 336.5211,188.5114 345.5935,182.4499 C336.2941,177.275 336.7194,169.6772 344.4113,163.4453 C337.9055,159.029 337.7089,154.019 343.4136,148.7724 C335.1674,143.6114 334.6939,136.9875 342.2655,130.8152 C335.4189,123.9113 336.7556,118.8298 345.0324,114.4889 C336.1514,109.4399 335.275,103.4584 344.0794,97.4218 C336.0027,92.7635 335.0473,85.7303 343.3319,80.3554 C333.9642,74.0327 333.8799,68.2503 343.7702,62.3976 C336.0811,56.9641 338.1606,50.3017 345.9422,47.0589 C336.9542,36.7908 338.1022,26.9628 351,20.9314 C352.2898,21.4674 352.4391,22.2108 351.5232,23.2455 " fill="#FFFFFF" filter="url(#fuu6c5yvmx8pv)" style="stroke:#000000;stroke-width:1.5;"/><text fill="#000000" font-family="sans-serif" font-size="14" font-weight="bold" lengthAdjust="spacing" textLength="62" x="378.5" y="38.9265">Intranet</text><!--MD5=[b1435b213846e3ddcd1e6c1cd6b83b9a]
entity Server--><polygon fill="#FEFECE" filter="url(#fuu6c5yvmx8pv)" points="352,57.9314,362,47.9314,467,47.9314,467,84.2283,457,94.2283,352,94.2283,352,57.9314" style="stroke:#000000;stroke-width:1.5;"/><line style="stroke:#000000;stroke-width:1.5;" x1="457" x2="467" y1="57.9314" y2="47.9314"/><line style="stroke:#000000;stroke-width:1.5;" x1="352" x2="457" y1="57.9314" y2="57.9314"/><line style="stroke:#000000;stroke-width:1.5;" x1="457" x2="457" y1="57.9314" y2="94.2283"/><text fill="#000000" font-family="sans-serif" font-size="14" lengthAdjust="spacing" textLength="75" x="367" y="80.9265">SSH server</text><!--MD5=[1c9cf15f5b00ed912c0ec0baad6af4cc]
entity User_intranet--><ellipse cx="409.5" cy="157.9314" fill="#FEFECE" filter="url(#fuu6c5yvmx8pv)" rx="8" ry="8" style="stroke:#A80036;stroke-width:1.5;"/><path d="M409.5,165.9314 L409.5,192.9314 M396.5,173.9314 L422.5,173.9314 M409.5,192.9314 L396.5,207.9314 M409.5,192.9314 L422.5,207.9314 " fill="none" filter="url(#fuu6c5yvmx8pv)" style="stroke:#A80036;stroke-width:1.5;"/><text fill="#000000" font-family="sans-serif" font-size="14" lengthAdjust="spacing" textLength="88" x="365.5" y="226.4265">Intranet user</text><!--MD5=[7deb0e42dff9de227f75e61dd4ce3948]
entity User_internet--><ellipse cx="36" cy="40.9314" fill="#FEFECE" filter="url(#fuu6c5yvmx8pv)" rx="8" ry="8" style="stroke:#A80036;stroke-width:1.5;"/><path d="M36,48.9314 L36,75.9314 M23,56.9314 L49,56.9314 M36,75.9314 L23,90.9314 M36,75.9314 L49,90.9314 " fill="none" filter="url(#fuu6c5yvmx8pv)" style="stroke:#A80036;stroke-width:1.5;"/><text fill="#000000" font-family="sans-serif" font-size="14" lengthAdjust="spacing" textLength="60" x="6" y="109.4265">Any user</text><!--MD5=[f9f1f1bf1f49ad0db1535e1d1e355f34]
link User_internet to Server--><path d="M66.15,71.8514 C126.32,71.6914 265.42,71.3214 346.58,71.1014 " fill="none" id="User_internet-to-Server" style="stroke:#A80036;stroke-width:1.0;"/><polygon fill="#A80036" points="351.84,71.0814,342.8286,67.1072,346.84,71.0957,342.8515,75.1071,351.84,71.0814" style="stroke:#A80036;stroke-width:1.0;"/><path d="M156.5,52.9314 L156.5,57.9314 L164.8333,66.2648 L169.8333,61.2648 L161.5,52.9314 L156.5,52.9314 M159.8333,54.5981 C160.75,54.5981 161.5,55.3481 161.5,56.2648 C161.5,57.1814 160.75,57.9314 159.8333,57.9314 C158.9167,57.9314 158.1667,57.1814 158.1667,56.2648 C158.1667,55.3481 158.9167,54.5981 159.8333,54.5981 " fill="#000000" style="stroke:;stroke-width:0.0;stroke-dasharray:;"/><text fill="#000000" font-family="sans-serif" font-size="13" lengthAdjust="spacing" textLength="86" x="174.8333" y="68.1988">1. FIDO token</text><!--MD5=[f9f1f1bf1f49ad0db1535e1d1e355f34]
link User_internet to Server--><path d="M66.27,85.6414 C83.53,92.9614 106.03,101.2114 127,104.9314 C197.89,117.5214 217.69,114.8814 289,104.9314 C308.04,102.2714 328.3,97.3514 346.64,92.0514 " fill="none" id="User_internet-to-Server-1" style="stroke:#A80036;stroke-width:1.0;"/><polygon fill="#A80036" points="351.75,90.5514,341.9864,89.2582,346.9539,91.9646,344.2475,96.932,351.75,90.5514" style="stroke:#A80036;stroke-width:1.0;"/><path d="M135.7167,85.8793 C131.5,85.8793 129,90.8793 129,90.8793 C129,90.8793 131.5,95.8793 135.7167,95.8793 C139.8333,95.8793 142.3333,90.8793 142.3333,90.8793 C142.3333,90.8793 139.8333,85.8793 135.7167,85.8793 M135.6667,87.546 C137.5167,87.546 139,89.046 139,90.8793 C139,92.7293 137.5167,94.2127 135.6667,94.2127 C133.8333,94.2127 132.3333,92.7293 132.3333,90.8793 C132.3333,89.046 133.8333,87.546 135.6667,87.546 M135.6667,89.2127 C134.75,89.2127 134,89.9627 134,90.8793 C134,91.796 134.75,92.546 135.6667,92.546 C136.5833,92.546 137.3333,91.796 137.3333,90.8793 C137.3333,90.7127 137.2667,90.5627 137.2333,90.4127 C137.1,90.6793 136.8333,90.8793 136.5,90.8793 C136.0333,90.8793 135.6667,90.5127 135.6667,90.046 C135.6667,89.7127 135.8667,89.446 136.1333,89.3127 C135.9833,89.2627 135.8333,89.2127 135.6667,89.2127 " fill="#000000" style="stroke:;stroke-width:0.0;stroke-dasharray:;"/><text fill="#000000" font-family="sans-serif" font-size="20" lengthAdjust="spacing" textLength="0" x="149.3333" y="99.4959"/><path d="M150.65,85.8793 C150.4667,85.8793 150.3333,86.0127 150.3333,86.196 L150.3333,98.9127 C150.3333,99.096 150.4667,99.2293 150.65,99.2293 L158.3667,99.2293 C158.55,99.2293 158.6833,99.096 158.6833,98.9127 L158.6833,86.196 C158.6833,86.0127 158.55,85.8793 158.3667,85.8793 L150.65,85.8793 M152,87.546 L157,87.546 L157,95.8793 L152,95.8793 L152,87.546 M154.5,96.7127 C154.9667,96.7127 155.3333,97.0793 155.3333,97.546 C155.3333,98.0127 154.9667,98.3793 154.5,98.3793 C154.0333,98.3793 153.6667,98.0127 153.6667,97.546 C153.6667,97.0793 154.0333,96.7127 154.5,96.7127 " fill="#000000" style="stroke:;stroke-width:0.0;stroke-dasharray:;"/><text fill="#000000" font-family="sans-serif" font-size="13" lengthAdjust="spacing" textLength="120" x="168.6667" y="101.1468">2. password + OTP</text><!--MD5=[1c744e35a82d9c2532eec316d951bec4]
link User_intranet to Server--><path d="M409.5,148.3214 C409.5,132.1714 409.5,113.9814 409.5,99.2914 " fill="none" id="User_intranet-to-Server" style="stroke:#A80036;stroke-width:1.0;"/><polygon fill="#A80036" points="409.5,94.0514,405.5,103.0514,409.5,99.0514,413.5,103.0514,409.5,94.0514" style="stroke:#A80036;stroke-width:1.0;"/><path d="M362.1667,112.1814 C359.8667,112.1814 358,114.0481 358,116.3481 C358,116.6148 358,116.8814 358.05,117.1314 L353,122.1814 L353,125.5148 L358,125.5148 L358,122.1814 L361.3333,122.1814 L361.3333,120.5148 L361.3833,120.4648 C361.6333,120.5148 361.9,120.5148 362.1667,120.5148 C364.4667,120.5148 366.3333,118.6481 366.3333,116.3481 C366.3333,114.0481 364.4667,112.1814 362.1667,112.1814 M363,113.8481 C363.9167,113.8481 364.6667,114.5981 364.6667,115.5148 C364.6667,116.4314 363.9167,117.1814 363,117.1814 C362.0833,117.1814 361.3333,116.4314 361.3333,115.5148 C361.3333,114.5981 362.0833,113.8481 363,113.8481 " fill="#000000" style="stroke:;stroke-width:0.0;stroke-dasharray:;"/><text fill="#000000" font-family="sans-serif" font-size="13" lengthAdjust="spacing" textLength="70" x="371.3333" y="127.4488">3. SSH key</text><!--MD5=[99a1ceed9735727b17253930daed7fb8]
@startuml

!include <material/common>
!include <material/key_variant>
!include <material/flash>

left to right direction

actor User_internet as "Any user"

cloud Intranet {
  node Server as "SSH server"
  actor User_intranet as "Intranet user"
}

User_internet - - -> Server : <size:20><&tag></size> 1. FIDO token
User_internet - - -> Server : <size:20><&eye> <&phone></size> 2. password + OTP
User_intranet -> Server : <size:20><&key></size> 3. SSH key

@enduml

@startuml









sprite $ma_key_variant [48x48/16] {
000000000000000000000000000000000000000000000000
000000000000000000000000000000000000000000000000
000000000000000000000000000000000000000000000000
000000000000000000000000000000000000000000000000
0000000000016BDFFDB61000000000000000000000000000
00000000019FFFFFFFFFFA20000000000000000000000000
000000005FFFFFFFFFFFFFF4000000000000000000000000
00000006FFFFFFFFFFFFFFFF600000000000000000000000
0000005FFFFFFFFFFFFFFFFFF40000000000000000000000
000001FFFFFFFFFFFFFFFFFFFF1000000000000000000000
000009FFFFFE5005DFFFFFFFFF9000000000000000000000
00001FFFFFE100001EFFFFFFFFF100000000000000000000
00006FFFFF50000005FFFFFFFFF600000000000000000000
0000BFFFFF00000000FFFFFFFFFB00000000000000000000
0000DFFFFF00000000FFFFFFFFFD00000000000000000000
0000FFFFFF50000005FFFFFFFFFF00000000000000000000
0000FFFFFFD100001EFFFFFFFFFF00000000000000000000
0000DFFFFFFE5005EFFFFFFFFFFE00000000000000000000
0000BFFFFFFFFFFFFFFFFFFFFFFB00000000000000000000
00006FFFFFFFFFFFFFFFFFFFFFFA00000000000000000000
00001FFFFFFFFFFFFFFFFFFFFFFF80000000000000000000
000009FFFFFFFFFFFFFFFFFFFFFFF8000000000000000000
000001FFFFFFFFFFFFFFFFFFFFFFFF800000000000000000
0000004FFFFFFFFFFFFFFFFFFFFFFFF80000000000000000
00000006FFFFFFFFFFFFFFFFFFFFFFFF8000000000000000
000000004FFFFFFFFFFFFFFFFFFFFFFFF800000000000000
00000000019FFFFFFFFFFFFFFFFFFFFFFF80000000000000
0000000000016BDFFEBAFFFFFFFFFFFFFFF8000000000000
000000000000000000007FFFFFFFFFFFFFFF800000000000
0000000000000000000007FFFFFFFFFFFFFFF80000000000
00000000000000000000007FFFFFFFFFFFFFFF8000000000
000000000000000000000007FFFFFFFFFFFFFFF800000000
000000000000000000000000000000FFFFFFFFFF80000000
000000000000000000000000000000FFFFFFFFFFF8000000
000000000000000000000000000000FFFFFFFFFFFF800000
000000000000000000000000000000FFFFFFFFFFFFF80000
000000000000000000000000000000FFFFFFFFFFFFFF0000
000000000000000000000000000000FFFFFFFFFFFFFF0000
000000000000000000000000000000000000FFFFFFFF0000
000000000000000000000000000000000000FFFFFFFF0000
000000000000000000000000000000000000FFFFFFFF0000
000000000000000000000000000000000000FFFFFFFF0000
000000000000000000000000000000000000FFFFFFFF0000
000000000000000000000000000000000000FFFFFFFF0000
000000000000000000000000000000000000000000000000
000000000000000000000000000000000000000000000000
000000000000000000000000000000000000000000000000
000000000000000000000000000000000000000000000000
}

skinparam folderBackgroundColor<<MA KEY_VARIANT>> White
sprite $ma_flash [48x48/16] {
000000000000000000000000000000000000000000000000
000000000000000000000000000000000000000000000000
000000000000000000000000000000000000000000000000
000000000000000000000000000000000000000000000000
00000000000000FFFFFFFFFFFFFFFFFFFC00000000000000
00000000000000FFFFFFFFFFFFFFFFFFF400000000000000
00000000000000FFFFFFFFFFFFFFFFFFC000000000000000
00000000000000FFFFFFFFFFFFFFFFFF4000000000000000
00000000000000FFFFFFFFFFFFFFFFFC0000000000000000
00000000000000FFFFFFFFFFFFFFFFF40000000000000000
00000000000000FFFFFFFFFFFFFFFFC00000000000000000
00000000000000FFFFFFFFFFFFFFFF400000000000000000
00000000000000FFFFFFFFFFFFFFFC000000000000000000
00000000000000FFFFFFFFFFFFFFF4000000000000000000
00000000000000FFFFFFFFFFFFFFC0000000000000000000
00000000000000FFFFFFFFFFFFFF40000000000000000000
00000000000000FFFFFFFFFFFFFC00000000000000000000
00000000000000FFFFFFFFFFFFF400000000000000000000
00000000000000FFFFFFFFFFFFC000000000000000000000
00000000000000FFFFFFFFFFFF4000000000000000000000
00000000000000FFFFFFFFFFFFFFFFFFFB00000000000000
00000000000000FFFFFFFFFFFFFFFFFFF200000000000000
00000000000000FFFFFFFFFFFFFFFFFF8000000000000000
00000000000000FFFFFFFFFFFFFFFFFE0000000000000000
00000000000000FFFFFFFFFFFFFFFFF60000000000000000
00000000000000FFFFFFFFFFFFFFFFC00000000000000000
00000000000000000000FFFFFFFFFF300000000000000000
00000000000000000000FFFFFFFFF9000000000000000000
00000000000000000000FFFFFFFFF1000000000000000000
00000000000000000000FFFFFFFF70000000000000000000
00000000000000000000FFFFFFFD00000000000000000000
00000000000000000000FFFFFFF400000000000000000000
00000000000000000000FFFFFFB000000000000000000000
00000000000000000000FFFFFF2000000000000000000000
00000000000000000000FFFFF80000000000000000000000
00000000000000000000FFFFE00000000000000000000000
00000000000000000000FFFF600000000000000000000000
00000000000000000000FFFC000000000000000000000000
00000000000000000000FFF3000000000000000000000000
00000000000000000000FF90000000000000000000000000
00000000000000000000FF10000000000000000000000000
00000000000000000000F700000000000000000000000000
00000000000000000000D000000000000000000000000000
000000000000000000004000000000000000000000000000
000000000000000000000000000000000000000000000000
000000000000000000000000000000000000000000000000
000000000000000000000000000000000000000000000000
000000000000000000000000000000000000000000000000
}

skinparam folderBackgroundColor<<MA FLASH>> White

left to right direction

actor User_internet as "Any user"

cloud Intranet {
  node Server as "SSH server"
  actor User_intranet as "Intranet user"
}

User_internet - - -> Server : <size:20><&tag></size> 1. FIDO token
User_internet - - -> Server : <size:20><&eye> <&phone></size> 2. password + OTP
User_intranet -> Server : <size:20><&key></size> 3. SSH key

@enduml

PlantUML version 1.2021.9(Sun Jul 25 12:13:56 CEST 2021)
(GPL source distribution)
Java Runtime: OpenJDK Runtime Environment
JVM: OpenJDK 64-Bit Server VM
Default Encoding: UTF-8
Language: en
Country: US
--></g></svg>