<?xml version="1.0" encoding="UTF-8" standalone="no"?><svg xmlns="http://www.w3.org/2000/svg" xmlns:xlink="http://www.w3.org/1999/xlink" contentScriptType="application/ecmascript" contentStyleType="text/css" height="265px" preserveAspectRatio="none" style="width:527px;height:265px;background:#FFFFFF;" version="1.1" viewBox="0 0 527 265" width="527px" zoomAndPan="magnify"><defs><filter height="300%" id="fbgp2knxx3kcq" width="300%" x="-1" y="-1"><feGaussianBlur result="blurOut" stdDeviation="2.0"/><feColorMatrix in="blurOut" result="blurOut2" type="matrix" values="0 0 0 0 0 0 0 0 0 0 0 0 0 0 0 0 0 0 .4 0"/><feOffset dx="4.0" dy="4.0" in="blurOut2" result="blurOut3"/><feBlend in="SourceGraphic" in2="blurOut3" mode="normal"/></filter></defs><g><!--MD5=[ab058941f67e1b06d1fe13cf6d01b60f]
cluster Intranet--><path d="M380.5232,23.2455 C384.5195,16.0077 389.0934,14.7207 394.735,21.5878 C397.6871,13.1313 404.7485,11.8758 410.75,18.3076 C412.5787,10.0645 419.472,9.8211 424.8286,14.4485 C429.8565,6.6402 435.2545,6.4919 440.6683,14.0507 C445.3451,6 451.9754,6.5179 456.0225,14.6482 C460.8732,10.3149 467.0807,12.2263 468.7535,18.4725 C473.6225,11.9292 480.553,13.1456 483.4026,20.5877 C493.8483,12.6109 500.6213,16.0871 504,27.9314 C505.8241,27.4085 506.8789,28.6453 506.455,30.3781 C514.5147,35.631 514.705,41.6628 506.1536,46.6073 C515.1724,50.4716 514.8919,56.4234 508.067,62.2284 C518.7367,66.6654 518.6339,75.4119 509.5435,81.3729 C517.9727,84.4655 518.128,91.6297 510.8505,96.1148 C519.9288,101.4848 520.726,108.6533 512.2929,115.3373 C519.8422,119.8615 519.8405,125.7485 512.9659,130.8966 C519.4441,136.7008 519.0762,142.3249 511.8651,147.205 C519.1758,152.06 518.5724,160.5106 510.5371,164.1639 C517.5032,171.2275 517.442,177.4151 508.1831,182.3824 C514.7621,187.103 514.9565,193.7945 507.9213,198.2912 C515.6819,203.9517 515.7914,209.8714 507.1437,214.757 C513.6978,226.0365 511.1698,235.7229 497,237.9314 C498.1884,237.2086 499.22,237.8015 499.4084,239.1145 C495.6044,248.0934 489.4983,248.105 482.7197,242.5241 C479.4644,249.5727 472.8265,250.2477 467.9377,244.3957 C466.1294,250.5818 461.3338,252.632 455.8932,248.7342 C452.3423,257.7726 444.232,258.5546 438.8273,250.5954 C434.0519,256.4998 429.6048,255.9191 426.3238,249.124 C419.4483,255.9844 414.8226,253.8796 411.4391,245.6739 C404.6365,253.4775 398.4507,250.5574 395.0335,242.2306 C382.4855,248.9151 375.4714,243.8964 373,230.9314 C374.0135,231.192 374.3208,231.9644 373.5499,232.7613 C363.9946,226.6978 365.2357,220.656 373.8695,214.9184 C365.9112,208.9529 367.2301,204.3139 374.9014,199.3869 C366.5659,193.6419 365.5211,188.5114 374.5935,182.4499 C365.2941,177.275 365.7194,169.6772 373.4113,163.4453 C366.9055,159.029 366.7089,154.019 372.4136,148.7724 C364.1674,143.6114 363.6939,136.9875 371.2655,130.8152 C364.4189,123.9113 365.7556,118.8298 374.0324,114.4889 C365.1514,109.4399 364.275,103.4584 373.0794,97.4218 C365.0027,92.7635 364.0473,85.7303 372.3319,80.3554 C362.9642,74.0327 362.8799,68.2503 372.7702,62.3976 C365.0811,56.9641 367.1606,50.3017 374.9422,47.0589 C365.9542,36.7908 367.1022,26.9628 380,20.9314 C381.2898,21.4674 381.4391,22.2108 380.5232,23.2455 " fill="#FFFFFF" filter="url(#fbgp2knxx3kcq)" style="stroke:#000000;stroke-width:1.5;"/><text fill="#000000" font-family="sans-serif" font-size="14" font-weight="bold" lengthAdjust="spacing" textLength="62" x="407.5" y="38.9265">Intranet</text><!--MD5=[b1435b213846e3ddcd1e6c1cd6b83b9a]
entity Server--><polygon fill="#FEFECE" filter="url(#fbgp2knxx3kcq)" points="381,57.9314,391,47.9314,496,47.9314,496,84.2283,486,94.2283,381,94.2283,381,57.9314" style="stroke:#000000;stroke-width:1.5;"/><line style="stroke:#000000;stroke-width:1.5;" x1="486" x2="496" y1="57.9314" y2="47.9314"/><line style="stroke:#000000;stroke-width:1.5;" x1="381" x2="486" y1="57.9314" y2="57.9314"/><line style="stroke:#000000;stroke-width:1.5;" x1="486" x2="486" y1="57.9314" y2="94.2283"/><text fill="#000000" font-family="sans-serif" font-size="14" lengthAdjust="spacing" textLength="75" x="396" y="80.9265">SSH server</text><!--MD5=[1c9cf15f5b00ed912c0ec0baad6af4cc]
entity User_intranet--><ellipse cx="438.5" cy="157.9314" fill="#FEFECE" filter="url(#fbgp2knxx3kcq)" rx="8" ry="8" style="stroke:#A80036;stroke-width:1.5;"/><path d="M438.5,165.9314 L438.5,192.9314 M425.5,173.9314 L451.5,173.9314 M438.5,192.9314 L425.5,207.9314 M438.5,192.9314 L451.5,207.9314 " fill="none" filter="url(#fbgp2knxx3kcq)" style="stroke:#A80036;stroke-width:1.5;"/><text fill="#000000" font-family="sans-serif" font-size="14" lengthAdjust="spacing" textLength="88" x="394.5" y="226.4265">Intranet user</text><!--MD5=[7deb0e42dff9de227f75e61dd4ce3948]
entity User_internet--><ellipse cx="50.5" cy="40.9314" fill="#FEFECE" filter="url(#fbgp2knxx3kcq)" rx="8" ry="8" style="stroke:#A80036;stroke-width:1.5;"/><path d="M50.5,48.9314 L50.5,75.9314 M37.5,56.9314 L63.5,56.9314 M50.5,75.9314 L37.5,90.9314 M50.5,75.9314 L63.5,90.9314 " fill="none" filter="url(#fbgp2knxx3kcq)" style="stroke:#A80036;stroke-width:1.5;"/><text fill="#000000" font-family="sans-serif" font-size="14" lengthAdjust="spacing" textLength="89" x="6" y="109.4265">Internet user</text><!--MD5=[f9f1f1bf1f49ad0db1535e1d1e355f34]
link User_internet to Server--><path d="M95.03,71.8214 C163.62,71.6414 297.09,71.2914 375.62,71.0914 " fill="none" id="User_internet-to-Server" style="stroke:#A80036;stroke-width:1.0;"/><polygon fill="#A80036" points="380.72,71.0814,371.7086,67.1072,375.72,71.0957,371.7315,75.1071,380.72,71.0814" style="stroke:#A80036;stroke-width:1.0;"/><path d="M185.5,52.9314 L185.5,57.9314 L193.8333,66.2648 L198.8333,61.2648 L190.5,52.9314 L185.5,52.9314 M188.8333,54.5981 C189.75,54.5981 190.5,55.3481 190.5,56.2648 C190.5,57.1814 189.75,57.9314 188.8333,57.9314 C187.9167,57.9314 187.1667,57.1814 187.1667,56.2648 C187.1667,55.3481 187.9167,54.5981 188.8333,54.5981 " fill="#000000" style="stroke:;stroke-width:0.0;stroke-dasharray:;"/><text fill="#000000" font-family="sans-serif" font-size="13" lengthAdjust="spacing" textLength="86" x="203.8333" y="68.1988">1. FIDO token</text><!--MD5=[f9f1f1bf1f49ad0db1535e1d1e355f34]
link User_internet to Server--><path d="M95.02,88.9514 C113.52,95.3214 135.5,101.7714 156,104.9314 C227.16,115.9014 246.69,114.8814 318,104.9314 C337.04,102.2714 357.3,97.3514 375.64,92.0514 " fill="none" id="User_internet-to-Server-1" style="stroke:#A80036;stroke-width:1.0;"/><polygon fill="#A80036" points="380.75,90.5514,370.9864,89.2582,375.9539,91.9646,373.2475,96.932,380.75,90.5514" style="stroke:#A80036;stroke-width:1.0;"/><path d="M164.7167,85.8793 C160.5,85.8793 158,90.8793 158,90.8793 C158,90.8793 160.5,95.8793 164.7167,95.8793 C168.8333,95.8793 171.3333,90.8793 171.3333,90.8793 C171.3333,90.8793 168.8333,85.8793 164.7167,85.8793 M164.6667,87.546 C166.5167,87.546 168,89.046 168,90.8793 C168,92.7293 166.5167,94.2127 164.6667,94.2127 C162.8333,94.2127 161.3333,92.7293 161.3333,90.8793 C161.3333,89.046 162.8333,87.546 164.6667,87.546 M164.6667,89.2127 C163.75,89.2127 163,89.9627 163,90.8793 C163,91.796 163.75,92.546 164.6667,92.546 C165.5833,92.546 166.3333,91.796 166.3333,90.8793 C166.3333,90.7127 166.2667,90.5627 166.2333,90.4127 C166.1,90.6793 165.8333,90.8793 165.5,90.8793 C165.0333,90.8793 164.6667,90.5127 164.6667,90.046 C164.6667,89.7127 164.8667,89.446 165.1333,89.3127 C164.9833,89.2627 164.8333,89.2127 164.6667,89.2127 " fill="#000000" style="stroke:;stroke-width:0.0;stroke-dasharray:;"/><text fill="#000000" font-family="sans-serif" font-size="20" lengthAdjust="spacing" textLength="0" x="178.3333" y="99.4959"/><path d="M179.65,85.8793 C179.4667,85.8793 179.3333,86.0127 179.3333,86.196 L179.3333,98.9127 C179.3333,99.096 179.4667,99.2293 179.65,99.2293 L187.3667,99.2293 C187.55,99.2293 187.6833,99.096 187.6833,98.9127 L187.6833,86.196 C187.6833,86.0127 187.55,85.8793 187.3667,85.8793 L179.65,85.8793 M181,87.546 L186,87.546 L186,95.8793 L181,95.8793 L181,87.546 M183.5,96.7127 C183.9667,96.7127 184.3333,97.0793 184.3333,97.546 C184.3333,98.0127 183.9667,98.3793 183.5,98.3793 C183.0333,98.3793 182.6667,98.0127 182.6667,97.546 C182.6667,97.0793 183.0333,96.7127 183.5,96.7127 " fill="#000000" style="stroke:;stroke-width:0.0;stroke-dasharray:;"/><text fill="#000000" font-family="sans-serif" font-size="13" lengthAdjust="spacing" textLength="120" x="197.6667" y="101.1468">2. password + OTP</text><!--MD5=[1c744e35a82d9c2532eec316d951bec4]
link User_intranet to Server--><path d="M438.5,148.3214 C438.5,132.1714 438.5,113.9814 438.5,99.2914 " fill="none" id="User_intranet-to-Server" style="stroke:#A80036;stroke-width:1.0;"/><polygon fill="#A80036" points="438.5,94.0514,434.5,103.0514,438.5,99.0514,442.5,103.0514,438.5,94.0514" style="stroke:#A80036;stroke-width:1.0;"/><path d="M391.1667,112.1814 C388.8667,112.1814 387,114.0481 387,116.3481 C387,116.6148 387,116.8814 387.05,117.1314 L382,122.1814 L382,125.5148 L387,125.5148 L387,122.1814 L390.3333,122.1814 L390.3333,120.5148 L390.3833,120.4648 C390.6333,120.5148 390.9,120.5148 391.1667,120.5148 C393.4667,120.5148 395.3333,118.6481 395.3333,116.3481 C395.3333,114.0481 393.4667,112.1814 391.1667,112.1814 M392,113.8481 C392.9167,113.8481 393.6667,114.5981 393.6667,115.5148 C393.6667,116.4314 392.9167,117.1814 392,117.1814 C391.0833,117.1814 390.3333,116.4314 390.3333,115.5148 C390.3333,114.5981 391.0833,113.8481 392,113.8481 " fill="#000000" style="stroke:;stroke-width:0.0;stroke-dasharray:;"/><text fill="#000000" font-family="sans-serif" font-size="13" lengthAdjust="spacing" textLength="70" x="400.3333" y="127.4488">3. SSH key</text><!--MD5=[4e3e06be4a9be4243910c18f463f6385]
@startuml

!include <material/common>
!include <material/key_variant>
!include <material/flash>

left to right direction

actor User_internet as "Internet user"

cloud Intranet {
  node Server as "SSH server"
  actor User_intranet as "Intranet user"
}

User_internet - - -> Server : <size:20><&tag></size> 1. FIDO token
User_internet - - -> Server : <size:20><&eye> <&phone></size> 2. password + OTP
User_intranet -> Server : <size:20><&key></size> 3. SSH key

@enduml

@startuml









sprite $ma_key_variant [48x48/16] {
000000000000000000000000000000000000000000000000
000000000000000000000000000000000000000000000000
000000000000000000000000000000000000000000000000
000000000000000000000000000000000000000000000000
0000000000016BDFFDB61000000000000000000000000000
00000000019FFFFFFFFFFA20000000000000000000000000
000000005FFFFFFFFFFFFFF4000000000000000000000000
00000006FFFFFFFFFFFFFFFF600000000000000000000000
0000005FFFFFFFFFFFFFFFFFF40000000000000000000000
000001FFFFFFFFFFFFFFFFFFFF1000000000000000000000
000009FFFFFE5005DFFFFFFFFF9000000000000000000000
00001FFFFFE100001EFFFFFFFFF100000000000000000000
00006FFFFF50000005FFFFFFFFF600000000000000000000
0000BFFFFF00000000FFFFFFFFFB00000000000000000000
0000DFFFFF00000000FFFFFFFFFD00000000000000000000
0000FFFFFF50000005FFFFFFFFFF00000000000000000000
0000FFFFFFD100001EFFFFFFFFFF00000000000000000000
0000DFFFFFFE5005EFFFFFFFFFFE00000000000000000000
0000BFFFFFFFFFFFFFFFFFFFFFFB00000000000000000000
00006FFFFFFFFFFFFFFFFFFFFFFA00000000000000000000
00001FFFFFFFFFFFFFFFFFFFFFFF80000000000000000000
000009FFFFFFFFFFFFFFFFFFFFFFF8000000000000000000
000001FFFFFFFFFFFFFFFFFFFFFFFF800000000000000000
0000004FFFFFFFFFFFFFFFFFFFFFFFF80000000000000000
00000006FFFFFFFFFFFFFFFFFFFFFFFF8000000000000000
000000004FFFFFFFFFFFFFFFFFFFFFFFF800000000000000
00000000019FFFFFFFFFFFFFFFFFFFFFFF80000000000000
0000000000016BDFFEBAFFFFFFFFFFFFFFF8000000000000
000000000000000000007FFFFFFFFFFFFFFF800000000000
0000000000000000000007FFFFFFFFFFFFFFF80000000000
00000000000000000000007FFFFFFFFFFFFFFF8000000000
000000000000000000000007FFFFFFFFFFFFFFF800000000
000000000000000000000000000000FFFFFFFFFF80000000
000000000000000000000000000000FFFFFFFFFFF8000000
000000000000000000000000000000FFFFFFFFFFFF800000
000000000000000000000000000000FFFFFFFFFFFFF80000
000000000000000000000000000000FFFFFFFFFFFFFF0000
000000000000000000000000000000FFFFFFFFFFFFFF0000
000000000000000000000000000000000000FFFFFFFF0000
000000000000000000000000000000000000FFFFFFFF0000
000000000000000000000000000000000000FFFFFFFF0000
000000000000000000000000000000000000FFFFFFFF0000
000000000000000000000000000000000000FFFFFFFF0000
000000000000000000000000000000000000FFFFFFFF0000
000000000000000000000000000000000000000000000000
000000000000000000000000000000000000000000000000
000000000000000000000000000000000000000000000000
000000000000000000000000000000000000000000000000
}

skinparam folderBackgroundColor<<MA KEY_VARIANT>> White
sprite $ma_flash [48x48/16] {
000000000000000000000000000000000000000000000000
000000000000000000000000000000000000000000000000
000000000000000000000000000000000000000000000000
000000000000000000000000000000000000000000000000
00000000000000FFFFFFFFFFFFFFFFFFFC00000000000000
00000000000000FFFFFFFFFFFFFFFFFFF400000000000000
00000000000000FFFFFFFFFFFFFFFFFFC000000000000000
00000000000000FFFFFFFFFFFFFFFFFF4000000000000000
00000000000000FFFFFFFFFFFFFFFFFC0000000000000000
00000000000000FFFFFFFFFFFFFFFFF40000000000000000
00000000000000FFFFFFFFFFFFFFFFC00000000000000000
00000000000000FFFFFFFFFFFFFFFF400000000000000000
00000000000000FFFFFFFFFFFFFFFC000000000000000000
00000000000000FFFFFFFFFFFFFFF4000000000000000000
00000000000000FFFFFFFFFFFFFFC0000000000000000000
00000000000000FFFFFFFFFFFFFF40000000000000000000
00000000000000FFFFFFFFFFFFFC00000000000000000000
00000000000000FFFFFFFFFFFFF400000000000000000000
00000000000000FFFFFFFFFFFFC000000000000000000000
00000000000000FFFFFFFFFFFF4000000000000000000000
00000000000000FFFFFFFFFFFFFFFFFFFB00000000000000
00000000000000FFFFFFFFFFFFFFFFFFF200000000000000
00000000000000FFFFFFFFFFFFFFFFFF8000000000000000
00000000000000FFFFFFFFFFFFFFFFFE0000000000000000
00000000000000FFFFFFFFFFFFFFFFF60000000000000000
00000000000000FFFFFFFFFFFFFFFFC00000000000000000
00000000000000000000FFFFFFFFFF300000000000000000
00000000000000000000FFFFFFFFF9000000000000000000
00000000000000000000FFFFFFFFF1000000000000000000
00000000000000000000FFFFFFFF70000000000000000000
00000000000000000000FFFFFFFD00000000000000000000
00000000000000000000FFFFFFF400000000000000000000
00000000000000000000FFFFFFB000000000000000000000
00000000000000000000FFFFFF2000000000000000000000
00000000000000000000FFFFF80000000000000000000000
00000000000000000000FFFFE00000000000000000000000
00000000000000000000FFFF600000000000000000000000
00000000000000000000FFFC000000000000000000000000
00000000000000000000FFF3000000000000000000000000
00000000000000000000FF90000000000000000000000000
00000000000000000000FF10000000000000000000000000
00000000000000000000F700000000000000000000000000
00000000000000000000D000000000000000000000000000
000000000000000000004000000000000000000000000000
000000000000000000000000000000000000000000000000
000000000000000000000000000000000000000000000000
000000000000000000000000000000000000000000000000
000000000000000000000000000000000000000000000000
}

skinparam folderBackgroundColor<<MA FLASH>> White

left to right direction

actor User_internet as "Internet user"

cloud Intranet {
  node Server as "SSH server"
  actor User_intranet as "Intranet user"
}

User_internet - - -> Server : <size:20><&tag></size> 1. FIDO token
User_internet - - -> Server : <size:20><&eye> <&phone></size> 2. password + OTP
User_intranet -> Server : <size:20><&key></size> 3. SSH key

@enduml

PlantUML version 1.2021.9(Sun Jul 25 12:13:56 CEST 2021)
(GPL source distribution)
Java Runtime: OpenJDK Runtime Environment
JVM: OpenJDK 64-Bit Server VM
Default Encoding: UTF-8
Language: en
Country: US
--></g></svg>