<?xml version="1.0" encoding="UTF-8" standalone="no"?><svg xmlns="http://www.w3.org/2000/svg" xmlns:xlink="http://www.w3.org/1999/xlink" contentScriptType="application/ecmascript" contentStyleType="text/css" height="436px" preserveAspectRatio="none" style="width:1104px;height:436px;" version="1.1" viewBox="0 0 1104 436" width="1104px" zoomAndPan="magnify"><defs><filter height="300%" id="f1malxukgw9hdk" width="300%" x="-1" y="-1"><feGaussianBlur result="blurOut" stdDeviation="2.0"/><feColorMatrix in="blurOut" result="blurOut2" type="matrix" values="0 0 0 0 0 0 0 0 0 0 0 0 0 0 0 0 0 0 .4 0"/><feOffset dx="4.0" dy="4.0" in="blurOut2" result="blurOut3"/><feBlend in="SourceGraphic" in2="blurOut3" mode="normal"/></filter></defs><g><text fill="#000000" font-family="sans-serif" font-size="18" lengthAdjust="spacingAndGlyphs" textLength="412" x="349.5" y="17.1035">Bluetooth association models &amp; security history</text><ellipse cx="629.1648" cy="389.2773" fill="#FEFECE" filter="url(#f1malxukgw9hdk)" rx="89.6648" ry="20.333" style="stroke: #A80036; stroke-width: 1.5;"/><text fill="#000000" font-family="sans-serif" font-size="14" lengthAdjust="spacingAndGlyphs" textLength="153" x="552.6648" y="393.9223">BR/EDR Legacy Pairing</text><path d="M754,353.9443 L754,385.4443 L718.7334,389.4443 L754,393.4443 L754,424.4502 A0,0 0 0 0 754,424.4502 L1066,424.4502 A0,0 0 0 0 1066,424.4502 L1066,363.9443 L1056,353.9443 L754,353.9443 A0,0 0 0 0 754,353.9443 " fill="#FBFB77" filter="url(#f1malxukgw9hdk)" style="stroke: #A80036; stroke-width: 1.0;"/><path d="M1056,353.9443 L1056,363.9443 L1066,363.9443 L1056,353.9443 " fill="#FBFB77" style="stroke: #A80036; stroke-width: 1.0;"/><text fill="#000000" font-family="sans-serif" font-size="13" lengthAdjust="spacingAndGlyphs" textLength="124" x="760" y="371.2969">Since the beginning</text><text fill="#000000" font-family="sans-serif" font-size="13" lengthAdjust="spacingAndGlyphs" textLength="0" x="764" y="386.4233"/><text fill="#000000" font-family="sans-serif" font-size="13" lengthAdjust="spacingAndGlyphs" textLength="291" x="760" y="401.5498">Lowest security (based on SAFER+ algorithms)</text><text fill="#000000" font-family="sans-serif" font-size="13" lengthAdjust="spacingAndGlyphs" textLength="81" x="760" y="416.6763">There is only</text><text fill="#000000" font-family="sans-serif" font-size="13" font-weight="bold" lengthAdjust="spacingAndGlyphs" textLength="153" x="845" y="416.6763">one pairing workflow</text><text fill="#000000" font-family="sans-serif" font-size="13" lengthAdjust="spacingAndGlyphs" textLength="4" x="998" y="416.6763">.</text><ellipse cx="628.9662" cy="242.3376" fill="#FEFECE" filter="url(#f1malxukgw9hdk)" rx="87.4662" ry="19.8932" style="stroke: #A80036; stroke-width: 1.5;"/><text fill="#000000" font-family="sans-serif" font-size="14" lengthAdjust="spacingAndGlyphs" textLength="148" x="554.9662" y="246.9826">Secure Simple Pairing</text><path d="M751.5,191.9443 L751.5,238.4443 L716.5566,242.4443 L751.5,246.4443 L751.5,292.7031 A0,0 0 0 0 751.5,292.7031 L1092.5,292.7031 A0,0 0 0 0 1092.5,292.7031 L1092.5,201.9443 L1082.5,191.9443 L751.5,191.9443 A0,0 0 0 0 751.5,191.9443 " fill="#FBFB77" filter="url(#f1malxukgw9hdk)" style="stroke: #A80036; stroke-width: 1.0;"/><path d="M1082.5,191.9443 L1082.5,201.9443 L1092.5,201.9443 L1082.5,191.9443 " fill="#FBFB77" style="stroke: #A80036; stroke-width: 1.0;"/><text fill="#000000" font-family="sans-serif" font-size="13" lengthAdjust="spacingAndGlyphs" textLength="100" x="757.5" y="209.2969">Since 2.1 + EDR</text><text fill="#000000" font-family="sans-serif" font-size="13" lengthAdjust="spacingAndGlyphs" textLength="0" x="761.5" y="224.4233"/><text fill="#000000" font-family="sans-serif" font-size="13" lengthAdjust="spacingAndGlyphs" textLength="314" x="757.5" y="239.5498">Enhances security with stronger (FIPS) algorithms,</text><text fill="#000000" font-family="sans-serif" font-size="13" lengthAdjust="spacingAndGlyphs" textLength="288" x="757.5" y="254.6763">passive eavesdropping and MITM protections,</text><text fill="#000000" font-family="sans-serif" font-size="13" lengthAdjust="spacingAndGlyphs" textLength="23" x="757.5" y="269.8027">and</text><text fill="#000000" font-family="sans-serif" font-size="13" font-weight="bold" lengthAdjust="spacingAndGlyphs" textLength="210" x="784.5" y="269.8027">4 possible pairing workflows</text><text fill="#000000" font-family="sans-serif" font-size="13" lengthAdjust="spacingAndGlyphs" textLength="4" x="994.5" y="269.8027">.</text><text fill="#000000" font-family="sans-serif" font-size="13" lengthAdjust="spacingAndGlyphs" textLength="221" x="757.5" y="284.9292">Some security is still at the level of</text><text fill="#000000" font-family="sans-serif" font-size="13" font-style="italic" lengthAdjust="spacingAndGlyphs" textLength="91" x="982.5" y="284.9292">BR/EDR legacy</text><text fill="#000000" font-family="sans-serif" font-size="13" lengthAdjust="spacingAndGlyphs" textLength="4" x="1073.5" y="284.9292">.</text><ellipse cx="628.8209" cy="64.2085" fill="#FEFECE" filter="url(#f1malxukgw9hdk)" rx="106.8209" ry="23.7642" style="stroke: #A80036; stroke-width: 1.5;"/><text fill="#000000" font-family="sans-serif" font-size="14" lengthAdjust="spacingAndGlyphs" textLength="191" x="533.3209" y="68.8535">BR/EDR Secure Connections</text><path d="M771,36.9443 L771,60.4443 L736.167,64.4443 L771,68.4443 L771,92.3237 A0,0 0 0 0 771,92.3237 L1001,92.3237 A0,0 0 0 0 1001,92.3237 L1001,46.9443 L991,36.9443 L771,36.9443 A0,0 0 0 0 771,36.9443 " fill="#FBFB77" filter="url(#f1malxukgw9hdk)" style="stroke: #A80036; stroke-width: 1.0;"/><path d="M991,36.9443 L991,46.9443 L1001,46.9443 L991,36.9443 " fill="#FBFB77" style="stroke: #A80036; stroke-width: 1.0;"/><text fill="#000000" font-family="sans-serif" font-size="13" lengthAdjust="spacingAndGlyphs" textLength="57" x="777" y="54.2969">Since 4.1</text><text fill="#000000" font-family="sans-serif" font-size="13" lengthAdjust="spacingAndGlyphs" textLength="0" x="781" y="69.4233"/><text fill="#000000" font-family="sans-serif" font-size="13" lengthAdjust="spacingAndGlyphs" textLength="209" x="777" y="84.5498">Fills the remaining security gaps.</text><ellipse cx="395.7796" cy="242.2003" fill="#FEFECE" filter="url(#f1malxukgw9hdk)" rx="74.2796" ry="17.2559" style="stroke: #A80036; stroke-width: 1.5;"/><text fill="#000000" font-family="sans-serif" font-size="14" lengthAdjust="spacingAndGlyphs" textLength="117" x="337.2796" y="246.8453">LE Legacy Pairing</text><path d="M6,191.9443 L6,292.7031 A0,0 0 0 0 6,292.7031 L286,292.7031 A0,0 0 0 0 286,292.7031 L286,246.4443 L321.3273,242.4443 L286,238.4443 L286,201.9443 L276,191.9443 L6,191.9443 A0,0 0 0 0 6,191.9443 " fill="#FBFB77" filter="url(#f1malxukgw9hdk)" style="stroke: #A80036; stroke-width: 1.0;"/><path d="M276,191.9443 L276,201.9443 L286,201.9443 L276,191.9443 " fill="#FBFB77" style="stroke: #A80036; stroke-width: 1.0;"/><text fill="#000000" font-family="sans-serif" font-size="13" lengthAdjust="spacingAndGlyphs" textLength="57" x="12" y="209.2969">Since 4.0</text><text fill="#000000" font-family="sans-serif" font-size="13" lengthAdjust="spacingAndGlyphs" textLength="0" x="16" y="224.4233"/><text fill="#000000" font-family="sans-serif" font-size="13" lengthAdjust="spacingAndGlyphs" textLength="121" x="12" y="239.5498">Similar to BR/EDR's</text><text fill="#000000" font-family="sans-serif" font-size="13" font-style="italic" lengthAdjust="spacingAndGlyphs" textLength="134" x="137" y="239.5498">Secure Simple Pairing</text><text fill="#000000" font-family="sans-serif" font-size="13" lengthAdjust="spacingAndGlyphs" textLength="83" x="12" y="254.6763">but with only</text><text fill="#000000" font-family="sans-serif" font-size="13" font-weight="bold" lengthAdjust="spacingAndGlyphs" textLength="144" x="99" y="254.6763">3 pairing workflows</text><text fill="#000000" font-family="sans-serif" font-size="13" lengthAdjust="spacingAndGlyphs" textLength="48" x="12" y="269.8027">(misses</text><text fill="#000000" font-family="sans-serif" font-size="13" font-style="italic" lengthAdjust="spacingAndGlyphs" textLength="133" x="64" y="269.8027">Numeric Comparison</text><text fill="#000000" font-family="sans-serif" font-size="13" lengthAdjust="spacingAndGlyphs" textLength="4" x="197" y="269.8027">)</text><text fill="#000000" font-family="sans-serif" font-size="13" lengthAdjust="spacingAndGlyphs" textLength="242" x="12" y="284.9292">and trades some security for usability.</text><ellipse cx="396.0487" cy="64.4541" fill="#FEFECE" filter="url(#f1malxukgw9hdk)" rx="90.5487" ry="20.5097" style="stroke: #A80036; stroke-width: 1.5;"/><text fill="#000000" font-family="sans-serif" font-size="14" lengthAdjust="spacingAndGlyphs" textLength="155" x="318.5487" y="69.0991">LE Secure Connections</text><path d="M6,28.9443 L6,99.4502 A0,0 0 0 0 6,99.4502 L270,99.4502 A0,0 0 0 0 270,99.4502 L270,68.4443 L305.4543,64.4443 L270,60.4443 L270,38.9443 L260,28.9443 L6,28.9443 A0,0 0 0 0 6,28.9443 " fill="#FBFB77" filter="url(#f1malxukgw9hdk)" style="stroke: #A80036; stroke-width: 1.0;"/><path d="M260,28.9443 L260,38.9443 L270,38.9443 L260,28.9443 " fill="#FBFB77" style="stroke: #A80036; stroke-width: 1.0;"/><text fill="#000000" font-family="sans-serif" font-size="13" lengthAdjust="spacingAndGlyphs" textLength="57" x="12" y="46.2969">Since 4.2</text><text fill="#000000" font-family="sans-serif" font-size="13" lengthAdjust="spacingAndGlyphs" textLength="0" x="16" y="61.4233"/><text fill="#000000" font-family="sans-serif" font-size="13" lengthAdjust="spacingAndGlyphs" textLength="60" x="12" y="76.5498">Similar to</text><text fill="#000000" font-family="sans-serif" font-size="13" font-style="italic" lengthAdjust="spacingAndGlyphs" textLength="175" x="76" y="76.5498">BR/EDR Secure Connections</text><text fill="#000000" font-family="sans-serif" font-size="13" lengthAdjust="spacingAndGlyphs" textLength="4" x="251" y="76.5498">,</text><text fill="#000000" font-family="sans-serif" font-size="13" lengthAdjust="spacingAndGlyphs" textLength="88" x="12" y="91.6763">with the same</text><text fill="#000000" font-family="sans-serif" font-size="13" font-weight="bold" lengthAdjust="spacingAndGlyphs" textLength="136" x="104" y="91.6763">4 pairing workflow</text><text fill="#000000" font-family="sans-serif" font-size="13" lengthAdjust="spacingAndGlyphs" textLength="4" x="240" y="91.6763">.</text><!--MD5=[2165f44cde3fa2ff1bfcf4b41e1f3b68]
reverse link secure_simple_pairing to bredr_legacy_pairing--><path d="M629,267.6882 C629,296.1953 629,342.0568 629,368.6083 " fill="none" id="secure_simple_pairing&lt;-bredr_legacy_pairing" style="stroke: #A80036; stroke-width: 1.0;"/><polygon fill="#A80036" points="629,262.5758,625,271.5758,629,267.5758,633,271.5758,629,262.5758" style="stroke: #A80036; stroke-width: 1.0;"/><!--MD5=[2fedb89cd8872dcfaabbf0d935df68de]
reverse link bredr_legacy_secure_connections to secure_simple_pairing--><path d="M629,93.6201 C629,129.9201 629,190.9453 629,222.3836 " fill="none" id="bredr_legacy_secure_connections&lt;-secure_simple_pairing" style="stroke: #A80036; stroke-width: 1.0;"/><polygon fill="#A80036" points="629,88.4502,625,97.4502,629,93.4502,633,97.4502,629,88.4502" style="stroke: #A80036; stroke-width: 1.0;"/><text fill="#000000" font-family="sans-serif" font-size="13" lengthAdjust="spacingAndGlyphs" textLength="159" x="630" y="143.2969">Security upgrade through</text><text fill="#000000" font-family="sans-serif" font-size="13" font-style="italic" lengthAdjust="spacingAndGlyphs" textLength="124" x="647.5" y="158.4233">Secure Connections</text><!--MD5=[cd7876923adef9c81699ce2ad3335492]
reverse link le_secure_connections to le_legacy_pairing--><path d="M396,90.4051 C396,127.1024 396,193.1839 396,224.7384 " fill="none" id="le_secure_connections&lt;-le_legacy_pairing" style="stroke: #A80036; stroke-width: 1.0;"/><polygon fill="#A80036" points="396,85.2115,392,94.2115,396,90.2115,400,94.2115,396,85.2115" style="stroke: #A80036; stroke-width: 1.0;"/><text fill="#000000" font-family="sans-serif" font-size="13" lengthAdjust="spacingAndGlyphs" textLength="159" x="397" y="143.2969">Security upgrade through</text><text fill="#000000" font-family="sans-serif" font-size="13" font-style="italic" lengthAdjust="spacingAndGlyphs" textLength="124" x="414.5" y="158.4233">Secure Connections</text><!--MD5=[da9415f430ace838bcf0741cfe8124ff]
@startuml

title
    Bluetooth association models & security history
end title

(BR/EDR Legacy Pairing) as bredr_legacy_pairing
    note right of bredr_legacy_pairing
        Since the beginning

        Lowest security (based on SAFER+ algorithms)
        There is only **one pairing workflow**.
    end note
(Secure Simple Pairing) as secure_simple_pairing
    note right of secure_simple_pairing
        Since 2.1 + EDR

        Enhances security with stronger (FIPS) algorithms,
        passive eavesdropping and MITM protections,
        and **4 possible pairing workflows**.
        Some security is still at the level of <i>BR/EDR legacy</i>.
    end note
(BR/EDR Secure Connections) as bredr_legacy_secure_connections
    note right of bredr_legacy_secure_connections
        Since 4.1

        Fills the remaining security gaps.
    end note
(LE Legacy Pairing) as le_legacy_pairing
    note left of le_legacy_pairing
        Since 4.0

        Similar to BR/EDR's <i>Secure Simple Pairing</i>
        but with only **3 pairing workflows**
        (misses <i>Numeric Comparison</i>)
        and trades some security for usability.
    end note
(LE Secure Connections) as le_secure_connections
    note left of le_secure_connections
        Since 4.2

        Similar to <i>BR/EDR Secure Connections</i>,
        with the same **4 pairing workflow**.
    end note

bredr_legacy_pairing -up-> secure_simple_pairing
secure_simple_pairing -up-> bredr_legacy_secure_connections : Security upgrade through\n<i>Secure Connections</i>
le_legacy_pairing -up-> le_secure_connections : Security upgrade through\n<i>Secure Connections</i>

@enduml

PlantUML version 1.2020.05(Thu Mar 19 22:17:32 CET 2020)
(GPL source distribution)
Java Runtime: Java(TM) SE Runtime Environment
JVM: Java HotSpot(TM) 64-Bit Server VM
Java Version: 9.0.4+11
Operating System: Linux
Default Encoding: UTF-8
Language: fr
Country: FR
--></g></svg>